<?xml version="1.0" encoding="UTF-8" standalone="no"?>
<svg width="1000px" height="1000px" viewBox="0 0 1000 1000" version="1.1" xmlns="http://www.w3.org/2000/svg" xmlns:xlink="http://www.w3.org/1999/xlink" xmlns:sketch="http://www.bohemiancoding.com/sketch/ns">
    <!-- Generator: Sketch Beta 3.3.2 (12041) - http://www.bohemiancoding.com/sketch -->
    <title>1</title>
    <desc>Created with Sketch Beta.</desc>
    <defs></defs>
    <g id="Page-1" stroke="none" stroke-width="1" fill="none" fill-rule="evenodd" sketch:type="MSPage">
        <g id="1" sketch:type="MSArtboardGroup">
            <g id="Imported-Layers" sketch:type="MSLayerGroup" transform="translate(65.000000, 92.000000)">
                <path d="M798.264,57.152 C791.609,60.467 786.136,64.703 783.812,71.987 C781.343,79.726 783.142,88.98 784.895,96.667 C785.756,100.446 786.836,104.168 787.843,107.91 C788.283,109.547 788.67,111.182 788.974,112.848 C788.937,112.647 789.069,114.309 789.067,114.344 C788.665,122.7 786.216,130.716 786.488,139.166 C786.735,146.818 788.258,156.076 793.52,162.026 C796.299,165.168 800.979,167.819 802.183,172.081 C800.606,166.499 802.412,167.004 801.27,169.603 C800.662,170.988 799.676,172.187 798.684,173.309 C796.687,175.567 794.064,177.212 791.535,178.799 C786.258,182.11 780.461,185.047 776.576,190.073 C774.807,192.362 775.858,197.416 776.298,199.914 C776.835,202.957 777.592,206.827 779.925,209.066 C786.386,215.268 794.545,219.486 801.079,225.668 C801.805,226.355 802.449,227.086 803.083,227.856 C806.364,231.846 801.689,230.958 802.277,219.383 C802.201,220.865 801.552,222.107 800.748,223.313 C798.974,225.976 795.902,227.362 793.198,228.856 C785.055,233.351 784.146,240.261 784.748,249.118 C785.167,255.289 786.796,261.974 789.777,267.415 C791.985,271.445 795.154,274.501 798.109,277.959 C801.305,281.699 798.651,281.215 798.997,275.035 C798.855,277.573 797.833,280.092 796.638,282.297 C794.556,286.136 791.008,288.87 787.732,291.625 C779.335,298.689 779.043,309.427 781.13,319.626 C782.293,325.307 784.316,330.385 787.267,335.355 C788.13,336.809 789.095,338.202 789.873,339.704 C792.068,343.943 789.642,329.79 788.854,333.241 C788.469,334.928 787.432,336.406 786.5,337.827 C782.936,343.26 777.651,347.743 771.025,348.304 C764.979,348.816 759.144,344.736 754.349,341.599 C747.568,337.162 738.497,329.624 729.67,331.431 C724.144,332.563 720.984,338.832 718.192,343.088 C713.709,349.925 708.305,354.869 700.314,357.191 C691.928,359.628 684.513,356.951 677.979,351.625 C671.593,346.419 666.52,339.802 660.12,334.595 C652.951,328.763 644.52,326.307 635.352,327.214 C625.945,328.144 619.034,333.483 614.009,341.179 C608.494,349.623 604.421,357.422 594.541,361.522 C581.85,366.789 568.327,359.6 557.8,352.853 C547.943,346.535 538.53,339.745 527.589,335.347 C517.128,331.141 505.576,329.846 496.153,336.987 C488.41,342.855 486.07,353.488 475.677,355.985 C470.746,357.17 464.823,355.153 460.157,353.736 C452.949,351.548 445.902,348.843 438.783,346.389 C427.911,342.642 411.601,335.724 400.34,341.516 C389.41,347.137 391.888,364.154 393.331,373.864 C393.638,370.425 393.946,366.987 394.253,363.548 C382.385,363.576 373.383,359.844 364.524,352.142 C360.6,348.73 356.844,345.146 352.8,341.87 C349.165,338.926 345.893,335.62 342.273,332.691 C334.839,326.677 322.439,331.964 321.563,341.24 C321.375,343.233 321.58,345.218 321.623,347.209 C321.574,344.975 321.255,347.456 320.885,348.169 C320.378,349.147 319.618,350.059 318.993,350.965 C316.171,355.055 313.439,359.161 309.813,362.597 C303.672,368.415 289.483,367.847 287.146,359.296 C286.872,358.29 286.568,356.491 286.172,354.349 C285.684,351.71 285.132,349.075 284.437,346.482 C282.998,341.11 280.943,336.089 277.09,332.014 C271.102,325.678 261.263,326.443 254.875,331.235 C248.584,335.953 245.083,343.805 240.767,350.162 C235.548,357.851 224.45,364.268 215.7,358.211 C212.536,356.021 211.623,351.64 208.67,349.145 C205.927,346.828 199.174,345.826 195.809,347.002 C192.992,347.986 191.544,351.031 190.398,353.524 C188.458,357.748 186.501,361.648 183.287,365.077 C176.335,372.494 165.287,376.489 156.986,369.349 C147.723,361.381 143.514,338.683 128.27,339.63 C123.16,339.948 118.545,343.812 114.745,346.869 C109.765,350.877 105.152,355.327 99.839,358.912 C87.668,367.123 69.028,367.574 61.977,352.532 C60.452,349.28 59.226,344.898 55.827,343.165 C50.881,340.643 44.85,341.931 39.766,339.963 C35.394,338.271 30.677,333.428 28.006,329.65 C28.304,330.072 27.155,327.983 27.455,328.788 C27.47,328.827 28.308,335.722 28.263,332.543 C28.247,331.443 28.803,328.694 29.131,327.055 C29.628,324.578 30.201,322.116 30.738,319.648 C30.806,319.337 34.541,318.597 35.011,318.447 C40.898,316.566 39.587,306.742 38.661,302.281 C37.328,295.854 35.222,290.655 31.207,285.489 C27.659,280.925 25.352,275.38 22.103,270.549 C21.307,269.365 20.55,268.162 19.81,266.943 C18.261,264.394 19.822,264.296 19.61,269.207 C19.694,267.275 20.349,265.421 21.207,263.708 C23.127,259.873 26.455,256.871 29.693,254.165 C35.844,249.027 42.505,244.65 44.457,236.362 C46.806,226.387 43.456,215.006 38.492,206.371 C33.853,198.3 26.227,192.168 20.037,185.355 C17.081,182.101 14.732,178.506 12.757,174.582 C11.981,173.04 11.343,171.503 10.918,169.84 C11.78,173.21 11.183,169.871 11.5,168.378 C13.488,159.029 21.893,151.765 29.253,146.442 C33.209,143.581 29.761,132.738 28.169,129.299 C23.492,119.193 14.745,111.37 8.618,102.168 C8.074,101.35 7.541,100.511 7.069,99.648 C7.081,99.67 5.798,96.556 6.246,98.192 C8.382,105.978 5.632,105.423 8.184,101.359 C9.007,100.048 10.283,98.962 11.531,98.08 C16.072,94.874 21.158,93.256 23.652,87.869 C26.84,80.983 25.549,72.274 23.95,65.164 C23.273,62.153 22.342,59.202 21.3,56.299 C20.793,54.888 20.247,53.49 19.726,52.084 C19.518,51.523 18.741,48.828 19.188,50.979 C20.065,55.205 18.939,55.181 19.677,53.531 C20.252,52.247 21.286,51.219 22.282,50.263 C25.227,47.434 29.721,46.072 33.675,45.764 C41.626,45.146 49.436,49.878 56.665,52.511 C57.219,52.897 57.69,52.814 58.079,52.262 C64.038,39.628 69.604,28.211 81.737,20.42 C81.21,20.051 80.684,19.682 80.157,19.312 C84.572,25.707 88.149,32.643 92.576,39.04 C96.586,44.834 101.506,51.469 108.95,52.405 C115.776,53.263 121.48,50.905 126.518,46.477 C130.27,43.18 133.151,39.99 138.581,41.101 C140.278,41.449 141.911,42.439 143.402,43.27 C144.169,43.718 144.921,44.19 145.659,44.685 C150.25,47.663 144.279,28.4 143.629,34.155 C142.99,39.817 143.692,45.087 145.353,50.552 C147.929,59.026 157.031,60.226 163.255,54.982 C169.11,50.048 170.977,42.871 179.563,42.173 C182.622,41.924 186.234,43.336 187.778,46.139 C189.089,48.517 187.688,43.711 188.007,47.083 C188.208,49.214 187.835,51.494 187.593,53.603 C187.143,57.526 188.01,61.915 189.281,65.611 C189.585,66.492 191.35,71.619 193.082,69.607 C205.218,55.519 217.722,33.273 238.028,30.76 C246.75,29.681 255.306,35.039 261.32,40.883 C266.91,46.314 272.959,47.912 280.689,48.606 C296.538,50.028 312.73,48.979 328.611,48.648 C343.673,48.334 358.703,48.679 373.759,49.067 C380.177,49.232 386.946,49.409 393.123,51.33 C399.728,53.385 405.461,57.557 412.072,59.653 C421.497,62.64 430.925,60.443 437.853,53.515 C443.244,48.124 446.739,40.995 451.416,35.017 C457.656,27.042 466.246,21.242 476.611,21.132 C486.242,21.031 494.988,26.963 502.003,32.966 C510.059,39.859 516.592,48.472 522.478,57.232 C522.816,57.903 523.342,58.272 524.057,58.34 C541.456,50.3 559.193,42.406 571.271,26.88 C570.8,26.963 570.329,27.046 569.858,27.129 C574.717,30.691 579.901,33.323 585.935,34.05 C592.711,34.867 598.722,31.169 603.577,26.88 C602.566,26.188 601.555,25.496 600.543,24.803 C601.838,27.772 601.812,31.505 602.389,34.702 C603.336,39.947 604.78,45.248 607.322,49.958 C612.162,58.924 622.182,64.646 632.178,65.645 C650.484,67.475 660.62,48.595 669.493,36.064 C674.081,29.583 679.708,23.481 687.426,20.924 C691.564,19.553 696.072,19.947 700.117,21.389 C702.03,22.071 703.795,23.094 705.447,24.259 C705.994,24.67 706.51,25.116 706.995,25.598 C707.51,26.076 708.369,28.183 707.505,25.938 C705.305,20.221 706.93,18.485 706.03,22.414 C705.633,24.146 705.032,25.831 704.427,27.498 C703.125,31.08 701.417,34.518 699.819,37.974 C696.841,44.419 693.729,51.124 693.45,58.337 C693.379,60.187 694.421,76.037 698.295,74.817 C720.205,67.918 725.658,34.242 751.305,34.598 C762.698,34.756 770.115,46.721 774.525,55.757 C777.236,61.313 779.182,67.157 780.594,73.161 C781.443,76.77 781.84,79.76 781.276,83.995 C781.061,85.607 782.939,102.124 786.12,100.475 C793.071,96.874 798.565,91.546 802.012,84.485 C803.929,80.557 802.967,66.73 797.894,65.265 C792.155,63.608 786.02,63.575 780.264,65.152 C776.015,66.316 780.379,85.768 783.736,84.848 C789.493,83.271 795.628,83.304 801.367,84.962 C799.994,78.555 798.622,72.148 797.249,65.742 C794.035,72.327 789.164,77.402 782.648,80.779 C784.262,86.273 785.877,91.766 787.492,97.259 C789.53,81.966 785.228,65.163 779.941,50.926 C775.326,38.496 768.204,22.885 755.596,16.719 C743.121,10.618 730.693,19.816 722.549,28.6 C714.289,37.51 707.08,51.261 694.822,55.121 C696.437,60.614 698.052,66.108 699.667,71.601 C699.938,64.555 704.165,57.704 707.014,51.432 C710.693,43.332 713.469,35.224 712.62,26.191 C711.769,17.13 709.032,7.779 700.576,3.209 C692.432,-1.192 683.372,-0.049 676.085,5.346 C661.643,16.04 657.236,35.952 640.33,43.859 C630,48.689 618.604,44.658 610.515,37.456 C607.214,34.518 607.325,31.537 606.695,27.396 C605.792,21.47 604.244,15.709 601.848,10.213 C601.344,9.058 600.241,6.877 598.814,8.137 C588.933,16.866 578.028,15.295 567.922,7.887 C567.368,7.502 566.897,7.585 566.509,8.137 C554.736,23.27 537.535,30.811 520.584,38.644 C521.11,39.013 521.636,39.382 522.163,39.752 C510.754,22.772 492.507,-0.862 469.342,1.663 C458.439,2.851 449.91,11.548 443.874,19.998 C438.852,27.029 434.713,35.634 426.522,39.465 C414.583,45.05 403.374,36.999 392.682,32.632 C380.938,27.835 366.73,29.444 354.321,28.975 C338.11,28.363 321.873,29.091 305.662,29.35 C297.88,29.474 290.099,29.455 282.32,29.198 C276.963,29.022 271.201,28.785 266.177,26.728 C261.078,24.64 257.659,19.531 253.099,16.538 C245.433,11.507 236.827,9.508 228.059,12.626 C210.661,18.815 199.766,37.575 188.32,50.864 C190.149,56.199 191.979,61.533 193.809,66.868 C195.144,55.24 193.949,43.409 189.547,32.53 C186.364,24.664 177.991,19.541 169.902,24.156 C163.63,27.736 161.523,36.417 154.253,38.462 C152.306,39.009 150.145,38.529 148.314,37.846 C142.866,35.814 149.049,53.664 149.741,48.188 C149.838,47.416 149.932,46.661 149.975,45.884 C150.304,39.926 149.444,31.63 145.319,26.945 C141.456,22.558 133.471,19.33 128.04,22.468 C122.96,25.403 120.015,30.282 114.155,32.118 C95.938,37.827 87.862,13.449 79.843,1.832 C79.504,1.161 78.978,0.792 78.263,0.724 C72.508,4.42 67.482,8.726 63.451,14.283 C59.202,20.142 56.387,27.009 53.316,33.519 C53.788,33.436 54.259,33.353 54.73,33.269 C46.714,30.35 38.936,26.082 30.202,26.068 C23.219,26.057 15.961,31.043 13.78,37.627 C11.313,45.078 14.087,54.706 16.517,61.806 C17.483,64.63 18.826,67.637 19.496,70.194 C18.998,68.294 19.595,66.033 18.849,69.011 C18.38,70.885 16.976,72.382 15.616,73.662 C10.822,78.174 4.374,78.981 1.788,85.82 C-1.208,93.742 1.198,103.828 4.408,111.347 C7.129,117.721 11.339,123.296 15.618,128.692 C19.425,133.492 24.274,138.292 26.865,143.89 C26.503,138.175 26.142,132.461 25.78,126.746 C16.83,133.219 8.683,140.807 5.817,151.844 C2.655,164.022 6.243,178.098 11.453,189.173 C16.434,199.762 24.67,206.991 32.396,215.48 C34.199,217.46 35.869,219.546 37.427,221.724 C38.074,222.628 38.662,223.571 39.175,224.556 C41.007,228.067 38.54,221.207 38.774,219.828 C38.121,223.668 35.198,226.713 32.451,229.253 C26.39,234.859 19.042,238.923 15.581,246.803 C10.351,258.712 14.01,273.611 20.124,284.424 C22.877,289.292 25.936,294.013 28.726,298.858 C29.978,301.03 31.527,302.956 33.042,304.945 C37.037,310.191 29.665,303.872 32.97,297.812 C32.445,298.774 30.77,299.001 29.834,299.244 C25.046,300.491 24.914,303.756 23.944,308.189 C22.837,313.245 22.039,318.232 21.918,323.412 C21.658,334.574 25.591,345.514 33.703,353.179 C37.576,356.839 41.544,359.675 46.839,360.519 C51.326,361.234 57.76,360.829 59.321,364.151 C61.323,368.413 63.123,372.896 66.262,376.477 C69.162,379.788 73.61,381.782 77.723,383.14 C84.307,385.314 90.926,384.79 97.233,382.025 C108.628,377.029 115.905,365.975 126.987,360.676 C140.976,353.987 147.802,374.777 154.023,383.168 C159.284,390.263 166.393,394.885 175.356,392.049 C185.457,388.854 191.336,380.592 195.51,371.506 C196.811,368.676 198.184,366.601 201.444,366.211 C203.8,365.929 206.348,366.787 208.531,367.521 C210.945,368.334 211.457,369.385 212.733,371.525 C215.328,375.879 218.362,378.478 223.258,379.813 C229.568,381.532 234.867,378.37 239.879,374.941 C251.364,367.082 253.949,343.761 271.916,347.478 C282.718,349.713 280.855,357.8 283.227,366.48 C286.053,376.823 292.081,386.577 304.081,386.416 C314.069,386.282 320.945,374.184 325.648,366.912 C328.261,362.871 328.006,357.757 327.834,353.17 C327.903,355.02 327.441,355.054 328.376,353.827 C329.453,352.415 331.493,351.731 333.053,351.058 C335.74,349.897 338.921,349.385 341.713,350.437 C345.578,351.894 348.035,355.967 351.206,358.425 C356.186,362.287 360.868,366.383 365.559,370.588 C374.981,379.033 384.951,383.274 397.726,383.244 C400.349,383.237 398.808,373.998 398.649,372.927 C398.869,374.41 398.473,370.97 398.49,371.156 C398.612,372.555 398.53,369.778 398.49,370.848 C398.542,369.446 398.714,368.468 399.107,367.075 C399.738,364.842 401.368,362.743 403.314,361.498 C408.069,358.458 414.594,359.086 419.875,359.898 C434.712,362.181 448.587,368.877 462.867,373.214 C467.849,374.727 473.436,376.53 478.706,375.765 C488.286,374.375 492.612,364.515 498.368,358.112 C506.789,348.743 520.505,350.963 530.908,355.145 C541.782,359.516 551.21,366.63 561.005,372.908 C571.48,379.622 583.906,385.253 596.492,381.744 C606.431,378.974 612.22,370.673 617.24,362.384 C622.164,354.251 627.744,348.793 637.425,347.1 C647.037,345.419 655.422,348.441 662.827,354.466 C675.083,364.437 684.379,381.013 702.667,377.169 C710.628,375.495 716.979,370.284 721.61,363.81 C724.688,359.506 727.198,353.172 732.55,351.291 C740.949,348.341 751.251,357.548 757.542,361.664 C761.997,364.579 766.692,367.053 771.997,367.896 C778.374,368.909 783.844,364.848 788.026,360.554 C797.44,350.884 796.402,337.69 791.568,325.946 C790.085,322.344 787.545,319.27 785.836,315.785 C787.362,318.898 785.999,320.182 786.951,317.06 C787.522,315.189 789.146,313.534 790.482,312.181 C793.156,309.476 796.324,307.358 798.894,304.529 C802.525,300.532 804.426,294.93 805.053,289.649 C806.458,277.816 803.139,266.144 795.071,257.44 C793.773,256.041 792.524,254.623 791.383,253.091 C790.841,252.363 790.513,251.769 790.123,250.951 C790.679,252.116 790.909,253.526 790.843,254.819 C790.978,252.136 793.996,250.114 796.046,248.905 C802.579,245.054 807.484,241.937 808.379,233.694 C809.548,222.923 806.119,213.025 798.327,205.653 C792.069,199.733 784.185,195.771 777.99,189.824 L781.338,208.817 C788.625,199.389 802.89,197.603 807.161,185.554 C810.134,177.167 807.072,165.765 803.708,157.957 C801.332,152.441 797.711,148.712 793.414,144.695 C792.805,144.125 792.322,143.509 791.836,142.831 C792.63,143.937 792.681,149.058 792.809,146.32 C793.009,142.077 793.861,137.831 794.536,133.643 C795.784,125.897 795.46,118.303 794.051,110.589 C793.168,105.759 791.849,101.029 790.552,96.299 C790.13,94.756 789.733,93.207 789.356,91.652 C789.646,92.85 789.034,88.142 789.146,90.683 C788.862,84.216 796.705,79.354 801.736,76.848 C806.401,74.525 800.398,56.089 798.264,57.152" id="Fill-1" fill="#0E0E0E" sketch:type="MSShapeGroup"></path>
                <path d="M184.264,405.152 C169.222,404.236 154.785,410.662 139.736,408.025 C133.189,406.878 126.933,404.246 120.547,402.456 C113.038,400.351 105.179,400.074 97.44,400.584 C91.578,400.97 83.614,401.449 78.407,404.366 C74.063,406.799 72.078,412.765 66.65,413.046 C62.13,413.279 58.763,407.574 54.35,406.767 C50.607,406.083 45.735,406.888 42.126,408.07 C31.976,411.394 34.28,427.328 35.378,435.131 C36.158,440.665 37.475,446.905 40.892,451.484 C43.041,454.365 46.297,455.035 49.619,455.745 C66.094,459.265 75.576,482.12 94.343,479.04 C98.376,478.378 101.77,475.414 104.335,472.428 C103.864,472.511 103.393,472.594 102.921,472.677 C112.473,478.911 119.128,488.532 130.419,491.861 C141.002,494.981 150.37,492.209 157.455,484.251 C160.604,480.714 164.146,477.811 168.734,476.363 C174.502,474.541 180.855,478.673 186.823,477.351 C190.734,476.484 195.497,473.514 195.704,469.22 C195.937,464.403 195.104,459.454 193.185,455.017 C192.881,454.315 192.46,453.639 192.088,452.985 C194.141,456.588 192.952,469.353 194.941,463.651 C196.105,460.315 195.032,455.586 194.202,452.315 C194.122,451.999 190.975,443.122 189.718,446.013 C187.706,450.644 191.651,436.902 194.174,457.197 C194.534,460.089 194.24,458.085 194.232,457.385 C194.23,457.206 194.279,454.961 194.224,456.596 C194.25,455.829 194.293,455.062 194.335,454.295 C194.413,452.889 194.526,451.485 194.658,450.083 C194.891,447.616 195.073,449.518 194.357,450.185 C193.615,449.975 192.874,449.764 192.133,449.554 C192.146,449.575 192.158,449.596 192.171,449.617 C191.232,446.86 190.293,444.103 189.354,441.346 C189.251,440.623 189.148,439.899 189.045,439.176 C189.361,442.74 190.14,447.071 192.228,450.082 C194.734,453.693 195.246,447.314 195.244,445.907 C195.247,448.041 195.196,446.978 195.963,446.005 C196.492,445.334 197.217,444.793 197.855,444.232 C199.276,442.982 199.65,441.177 199.802,439.359 C200.521,430.711 197.47,422.944 191.032,417.379 C188.606,415.282 188.927,424.366 188.974,424.834 C189.336,428.423 190.017,434.07 192.968,436.621 C193.767,437.312 195.741,438.999 195.942,439.477 C195.273,437.201 194.604,434.926 193.935,432.65 C193.969,432.832 194.002,433.014 194.035,433.195 C193.885,430.828 193.735,428.461 193.586,426.094 C193.766,423.926 193.726,424.932 192.639,425.887 C191.95,426.493 191.328,427.1 190.759,427.822 C188.864,430.225 188.895,433.912 188.899,436.776 C190.965,439.02 193.031,441.264 195.097,443.508 C194.748,439.566 193.853,435.496 191.818,432.074 C191.237,431.097 190.461,430.634 189.594,431.442 C188.337,432.614 188.534,435.847 188.383,437.44 C188.065,440.808 187.94,444.201 187.889,447.583 C187.821,452.188 188.489,456.734 189.841,461.134 C190.248,462.458 192.812,468.597 194.481,464.756 C192.74,458.877 190.999,452.997 189.258,447.118 C187.838,451.188 187.865,455.834 188.737,460.03 C189.299,462.729 189.9,465.365 191.019,467.892 C191.128,468.166 191.256,468.431 191.403,468.687 C193.688,473.009 190.381,465.17 190.494,465.658 C190.159,462.424 189.823,459.19 189.488,455.956 C190.233,454.108 190.246,453.6 189.527,454.431 C188.916,455.03 187.876,455.439 187.144,455.842 C185.118,456.957 183.321,457.803 181.01,458.019 C176.142,458.473 171.333,456.233 166.422,456.476 C159.117,456.837 153.997,464.662 149.233,469.168 C142.749,475.301 130.323,474.016 122.948,470.604 C114.552,466.719 108.689,458.463 100.986,453.435 C100.432,453.05 99.961,453.133 99.572,453.685 C86.003,469.475 68.103,449.217 56.932,440.667 C54.18,438.56 51.13,437.316 47.803,436.431 C45.253,435.752 41.83,435.684 40.114,433.383 C41.144,434.763 40.753,436.654 40.886,433.981 C40.968,432.32 41.535,431.033 42.54,429.732 C44.496,427.199 48.676,426.93 51.578,426.617 C56.489,426.087 59.054,426.838 63.075,429.731 C66.691,432.333 70.881,434.045 74.743,430.952 C78.429,427.999 80.567,424.002 85.369,422.799 C92.234,421.078 99.275,420.195 106.345,420.042 C120.016,419.745 131.719,425.708 144.875,428.013 C159.187,430.521 173.366,423.973 187.737,424.848 C190.421,425.012 189.267,405.457 184.264,405.152" id="Fill-2" fill="#0E0E0E" sketch:type="MSShapeGroup"></path>
                <path d="M146.263,501.152 C138.312,503.348 130.638,506.518 125.847,513.549 C121.419,520.047 118.882,527.242 113.636,533.294 C110.877,536.477 113.352,551.432 117.754,552.513 C123.551,553.938 126.192,558.455 129.323,563.054 C131.686,566.527 135.244,570.247 139.83,569.363 C145.447,568.28 150.435,564.625 155.958,563.103 C160.315,561.903 164.202,565.328 167.762,567.336 C182.153,575.452 180.32,550.217 178.032,542.822 C174.856,532.556 163.731,523.261 152.822,522.476 C153.874,523.967 154.926,525.458 155.978,526.948 C156.098,527.578 156.218,528.208 156.337,528.838 C156.487,531.205 156.637,533.572 156.786,535.939 C156.861,534.69 157.825,533.438 158.381,532.372 C160.212,528.864 159.013,523.517 158.102,519.93 C157.998,519.519 155.098,510.795 153.619,513.628 C149.543,521.436 149.9,529.461 153.139,537.699 C153.661,539.027 154.438,542.038 156.295,542.172 C160.61,542.483 164.613,544.767 168.18,547.061 C170.18,548.348 172.163,549.896 173.767,551.661 C174.313,552.262 174.929,552.99 175.311,553.715 C171.115,545.745 174.764,540.714 173.01,546.77 C171.916,550.552 168.393,549.452 165.827,548.094 C162.448,546.306 159.491,544.071 155.693,543.213 C147.984,541.47 139.91,552.861 132.541,549.127 C129.373,547.522 127.644,543.397 125.666,540.644 C122.737,536.568 119.147,534.013 114.281,532.817 C115.653,539.224 117.026,545.631 118.399,552.037 C123.248,546.443 126.096,540.058 129.728,533.713 C134.059,526.149 141.664,523.077 149.737,520.848 C153.992,519.673 149.609,500.228 146.263,501.152" id="Fill-3" fill="#0E0E0E" sketch:type="MSShapeGroup"></path>
                <path d="M116.263,79.152 C106.908,80.146 97.302,79.036 87.928,78.787 C80.169,78.58 69.413,77.511 62.574,82.028 C55.862,86.461 55.176,98.085 54.606,105.22 C53.819,115.075 54.019,125.546 55.996,135.259 C56.339,136.943 57.509,144.847 60.391,144.638 C81.728,143.093 102.495,131.124 124.17,135.973 C133.617,138.087 142.675,145.465 146.547,154.339 C145.914,152.888 147.049,156.409 146.389,153.967 C145.517,150.737 146.541,155.976 146.148,152.591 C145.899,150.443 146.134,152.904 146.134,153.271 C146.134,151.677 145.996,154.159 145.984,154.263 C145.711,156.719 144.443,160.067 143.16,162.618 C136.893,175.079 124.332,184.239 111.263,188.446 C100.443,191.929 85.5,191.52 79.736,180.218 C79.041,178.857 79.244,179.167 78.908,178.18 C79.156,179.038 79.134,178.919 78.842,177.823 C79.368,179.892 78.68,176.67 78.659,176.531 C78.436,175.089 76.965,166.676 74.263,167.152 C71.523,167.635 73.117,176.02 73.341,177.469 C75.652,192.419 82.28,207.79 98.845,209.95 C112.253,211.699 125.999,204.513 135.916,196.133 C147.78,186.109 153.535,172.379 152.199,156.923 C150.387,135.947 136.308,117.411 114.507,115.296 C94.862,113.391 76.27,123.54 56.918,124.942 C58.383,128.068 59.849,131.195 61.314,134.321 C61.227,133.917 61.149,133.51 61.08,133.102 C60.643,130.675 61.352,135.459 61.029,132.66 C60.76,130.332 60.778,130.217 60.693,128.111 C60.53,124.097 60.653,120.11 61.028,116.113 C61.607,109.943 62.8,102.443 69.341,100.146 C76.928,97.481 86.103,98.317 93.982,98.556 C102.511,98.815 111.222,99.753 119.737,98.848 C123.326,98.467 120.533,78.698 116.263,79.152" id="Fill-4" fill="#0E0E0E" sketch:type="MSShapeGroup"></path>
                <path d="M170.381,112.372 C173.932,106.277 180.181,99.885 187.89,102.799 C191.408,104.129 193.804,107.228 195.34,110.517 C196.074,112.088 195.484,112.412 195.607,109.873 C195.563,110.774 195.163,111.56 194.72,112.332 C192.438,116.303 187.344,117.925 183.562,120.028 C178.349,122.928 174.946,127.008 173.567,132.876 C172.904,135.701 173.253,138.794 173.75,141.612 C174.153,143.898 174.938,149.478 177.376,150.764 C186.352,155.497 196.177,156.393 205.737,152.848 C210.229,151.182 205.078,132.108 202.264,133.152 C193.221,136.505 183.999,136.035 175.441,131.522 C176.711,137.484 177.981,143.447 179.25,149.41 C180.941,142.216 187.158,139.788 193.037,136.555 C200.262,132.581 202.344,126.16 201.863,118.11 C201.18,106.659 197.949,91.357 187.719,84.475 C178.935,78.566 169.97,86.16 165.619,93.628 C163.675,96.966 165.025,102.635 165.898,106.07 C166.022,106.559 168.764,115.147 170.381,112.372" id="Fill-5" fill="#0E0E0E" sketch:type="MSShapeGroup"></path>
                <path d="M257.032,87.379 C242.05,79.349 225.79,85.836 219.836,101.572 C216.221,111.129 218.381,122.726 221.334,132.11 C223.614,139.353 228.076,146.597 234.545,150.77 C244.026,156.885 256.687,153.219 262.765,144.175 C271.259,131.536 265.089,110.735 255.843,100.26 C253.093,97.145 252.794,102.556 252.828,104.434 C252.896,108.311 253.431,114.651 256.157,117.74 C257.643,119.424 259.137,121.182 260.2,123.174 C261.574,125.748 259.866,121.35 260.032,120.402 C259.425,123.879 257.331,126.798 254.836,129.199 C249.507,134.328 240.827,135.458 234.234,132.421 C230.258,130.589 227.089,127.197 225.072,123.365 C224.992,123.214 223.883,119.909 224.347,122.165 C224.778,124.268 224.526,122.174 224.613,121.365 C224.909,118.636 226.36,115.991 227.786,113.713 C234.523,102.953 248.306,100.907 258.968,106.621 C261.794,108.136 261.121,100.112 261.026,99.166 C260.738,96.314 260.066,89.005 257.032,87.379" id="Fill-6" fill="#0E0E0E" sketch:type="MSShapeGroup"></path>
                <path d="M301.737,118.848 C317.794,117.995 333.684,121.276 349.737,120.848 C352.919,120.763 350.913,101.028 346.264,101.152 C330.211,101.58 314.321,98.298 298.264,99.152 C294.94,99.329 297.208,119.089 301.737,118.848" id="Fill-7" fill="#0E0E0E" sketch:type="MSShapeGroup"></path>
                <path d="M430.264,81.152 C408.419,87.162 390.16,104.22 378.853,123.392 C365.989,145.204 363.543,172.63 373.573,196.062 C377.751,205.822 386.178,212.779 396.918,213.353 C406.32,213.856 419.549,208.035 422.899,198.61 C425.901,190.167 423.444,175.917 416.011,170.246 C409.054,164.939 400.205,169.832 395.312,175.385 C394.711,176.106 394.147,176.853 393.619,177.628 C391.482,180.604 393.105,186.949 393.898,190.07 C394.07,190.747 396.502,198.988 398.381,196.372 C402.121,191.166 408.338,186.049 415.249,188.125 C416.222,188.417 417.102,188.938 417.946,189.488 C422.808,192.657 415.032,195.758 417.705,180.501 C417.107,183.915 413.565,186.671 410.896,188.44 C398.928,196.369 376.022,195.507 373.875,177.564 C371.86,160.73 381.748,142.978 391.742,130.262 C402.378,116.729 416.99,105.456 433.736,100.848 C437.989,99.678 433.615,80.23 430.264,81.152" id="Fill-8" fill="#0E0E0E" sketch:type="MSShapeGroup"></path>
                <path d="M468.264,101.152 C430,98.357 429.108,154.75 446.9,176.259 C457.318,188.855 481.957,196.841 493.772,182.146 C501.362,172.707 500.084,158.158 496.652,147.42 C495.14,142.689 492.867,138.388 490.352,134.126 C488.061,130.243 485.2,126.36 484.102,121.93 C483.945,121.293 481.44,112.975 479.619,115.628 C477.512,118.697 479.103,124.865 479.898,128.07 C482.037,136.703 486.131,144.053 490.667,151.606 C491.45,152.911 492.16,154.237 492.833,155.602 C493.084,156.059 493.289,156.534 493.448,157.028 C493.149,156.219 493.194,151.196 492.854,154.769 C492.487,158.634 489.998,162.433 487.455,165.219 C477.319,176.325 456.813,168.377 447.713,159.951 C445.911,158.282 444.401,156.146 443.277,153.971 C442.709,152.873 442.555,152.438 442.235,151.531 C442.436,152.327 442.394,152.183 442.11,151.099 C441.311,148.112 442.411,153.01 441.91,149.949 C442.132,151.306 441.975,149.645 441.967,149.233 C441.943,148.108 442.079,146.953 442.245,145.538 C442.548,142.955 443.387,140.393 444.287,137.963 C448.583,126.368 459.665,119.966 471.737,120.848 C474.349,121.039 473.31,101.521 468.264,101.152" id="Fill-9" fill="#0E0E0E" sketch:type="MSShapeGroup"></path>
                <path d="M524.263,75.152 C518.142,74.536 512.036,75.734 508.374,81.097 C504.564,86.677 504.86,94.875 505.63,101.233 C507.368,115.601 513.41,132.791 528.235,138.038 C561.217,149.71 553.865,91.855 533.541,81.546 C530.686,80.098 531.382,87.999 531.483,89.001 C531.816,92.31 532.463,98.592 535.476,100.788 C540.547,104.484 545.629,108.338 549.864,113.001 C551.832,115.169 553.602,117.577 554.906,120.201 C555.551,121.499 554.938,120.727 554.791,118.148 C554.88,119.706 554.394,121.238 553.997,122.721 C551.29,132.835 542.144,140.345 535.193,147.607 C528.277,154.832 522.013,162.551 520.786,172.79 C519.163,186.325 525.025,199.74 534.968,208.621 C537.355,210.754 537.07,201.607 537.026,201.166 C536.659,197.523 535.966,191.999 533.032,189.379 C530.88,187.456 528.969,185.466 527.289,183.116 C524.892,179.759 527.319,184.013 527.002,185.86 C527.778,181.337 530.6,177.382 533.346,173.834 C539.602,165.752 547.697,159.289 553.849,151.114 C562.44,139.697 562.718,124.207 558.343,111.058 C554.034,98.111 544.275,89.371 533.541,81.546 C534.186,87.96 534.831,94.374 535.476,100.788 C538.834,102.491 541.937,105.027 543.798,108.348 C543.958,108.634 545.103,111.197 544.752,110.271 C545.093,111.3 545.117,111.33 544.824,110.361 C545.104,111.495 545.099,111.436 544.81,110.184 C544.658,108.897 544.644,108.826 544.769,109.971 C544.713,108.905 544.699,108.901 544.726,109.959 C544.704,108.228 544.458,111.458 544.585,110.811 C542.733,120.292 532.877,121.124 525.19,118.403 C521.085,116.95 517.818,114.492 515.19,111.044 C513.881,109.327 512.884,107.482 512,105.521 C512.457,106.535 511.045,102.554 511.643,104.641 C511.36,103.486 511.344,103.489 511.596,104.65 C511.398,103.481 511.391,103.501 511.578,104.71 C511.849,106.952 511.6,103.447 511.54,105.014 C511.576,104.06 511.68,103.545 511.863,102.779 C512.29,100.993 513.254,99.507 514.456,98.142 C517.642,94.521 523.341,94.406 527.737,94.848 C530.184,95.094 529.401,75.669 524.263,75.152" id="Fill-10" fill="#0E0E0E" sketch:type="MSShapeGroup"></path>
                <path d="M603.737,160.848 C618.332,160.867 632.9,159.733 647.499,160.228 C654.456,160.464 661.417,161.167 668.181,162.848 C671.825,163.754 677.71,164.408 680.177,167.634 C679.279,166.46 678.965,163.872 678.869,162.253 C678.961,163.8 678.889,165.316 678.736,166.854 C678.497,169.26 677.428,171.57 676.237,173.632 C673.68,178.063 669.461,181.162 665.044,183.541 C655.553,188.653 644.561,190.373 634.263,193.152 C630.027,194.295 634.355,213.76 637.737,212.848 C649.766,209.602 662.695,207.65 673.15,200.411 C686.21,191.367 687.311,173.803 683.637,159.495 C682.186,153.846 680.076,148.301 674.392,145.913 C668.37,143.384 661.311,142.179 654.887,141.352 C636.8,139.025 618.416,141.175 600.264,141.152 C597.235,141.148 598.966,160.842 603.737,160.848" id="Fill-11" fill="#0E0E0E" sketch:type="MSShapeGroup"></path>
                <path d="M189.737,308.848 C203.02,300.558 214.427,288.55 224.008,276.301 C235.009,262.239 243.95,245.621 242.496,227.269 C241.156,210.361 231.534,192.76 212.912,191.086 C200.747,189.992 190.819,200.466 185.464,210.201 C178.195,223.416 176.989,238.958 181.385,253.317 C182.964,258.473 185.776,263.888 190.908,266.217 C196.93,268.95 203.903,267.107 209.737,264.848 C214.26,263.096 208.987,244.097 206.263,245.152 C200.873,247.24 194.075,249.291 188.481,246.752 C186.476,245.842 185.434,244.798 184.375,243.165 C185.191,244.422 184.315,242.975 184.202,242.726 C185.432,245.428 183.783,240.766 184.757,244.323 C184.189,242.25 185.161,246.817 185.141,246.669 C184.792,244.067 185.124,247.632 185.091,245.965 C185.049,243.811 184.976,247.623 185.107,245.426 C185.147,244.754 185.224,244.084 185.301,243.416 C185.379,242.728 185.605,241.566 185.913,240.235 C186.599,237.277 187.607,234.384 188.875,231.627 C191.44,226.047 195.081,220.91 199.667,216.816 C210.027,207.569 225.117,209.797 234.138,220.01 C235.095,221.094 235.952,222.297 236.595,223.586 C237.174,224.745 236.367,221.993 236.378,222.097 C236.228,220.744 236.29,223.23 236.138,224.53 C235.918,226.418 235.342,228.297 234.801,230.115 C232.325,238.434 227.561,246.053 222.582,253.083 C212.958,266.671 200.495,280.271 186.264,289.152 C181.567,292.083 188.201,309.806 189.737,308.848" id="Fill-12" fill="#0E0E0E" sketch:type="MSShapeGroup"></path>
                <path d="M317.032,219.379 C301.74,209.813 282.945,216.593 269.867,226.746 C253.136,239.735 248.331,259.494 254.331,279.456 C259.29,295.953 272.913,306.234 290.001,306.667 C305.251,307.053 320.69,300.153 331.969,290.182 C339.075,283.901 344.283,275.353 344.709,265.71 C345.279,252.809 341.184,239.726 331.032,231.379 C328.55,229.338 328.923,238.321 328.974,238.834 C329.328,242.34 329.994,248.176 332.968,250.621 C335.304,252.542 337.74,254.977 338.981,257.405 C339.875,259.156 338.886,256.795 338.828,256.598 C339.686,259.501 338.218,251.843 338.518,254.824 C338.238,252.039 338.365,254.385 338.045,255.673 C336.499,261.906 331.829,267.217 327.207,271.439 C316.035,281.644 299.83,287.587 284.728,286.908 C277.25,286.571 270.225,283.995 264.457,279.21 C261.659,276.888 259.352,273.889 257.797,270.612 C256.851,268.618 257.928,271.026 257.954,271.88 C257.918,270.691 258.422,268.492 258.848,266.951 C263.473,250.204 281.668,237.782 298.052,234.941 C305.303,233.684 312.693,234.696 318.968,238.621 C321.696,240.328 321.105,231.951 321.026,231.166 C320.716,228.095 320.068,221.278 317.032,219.379" id="Fill-13" fill="#0E0E0E" sketch:type="MSShapeGroup"></path>
                <path d="M476.381,296.372 C487.133,281.343 495.576,265.384 492.775,246.384 C491.416,237.172 487.851,228.623 480.684,222.499 C473.852,216.661 463.651,212.968 454.673,212.833 C448.873,212.745 443.246,215.053 439.377,219.393 C435.013,224.29 434.801,231.385 435.259,237.544 C435.848,245.471 438.577,253.549 444.21,259.267 C449.667,264.806 458.3,266.477 465.737,266.848 C468.486,266.985 467.227,247.4 462.264,247.152 C456.325,246.855 450.625,245.752 445.515,242.59 C443.806,241.533 442.301,240.201 441.087,238.607 C440.387,237.688 440.441,237.655 440.121,236.961 C441.031,238.934 441.507,241.517 441.374,243.73 C441.814,236.447 451.855,232.434 459.099,232.543 C465.929,232.646 472.683,235.484 478.499,238.854 C481.195,240.417 483.741,242.417 485.737,244.815 C486.472,245.699 487.093,246.64 487.603,247.664 C487.285,247.026 487.153,245.914 487.134,245.206 C487.259,249.896 484.637,255.658 482.525,260.013 C479.512,266.23 475.63,272.021 471.619,277.628 C469.485,280.611 471.103,286.943 471.898,290.07 C472.069,290.743 474.507,298.992 476.381,296.372" id="Fill-14" fill="#0E0E0E" sketch:type="MSShapeGroup"></path>
                <path d="M593.032,227.379 C586.205,224.413 578.717,222.976 571.352,222.174 C563.589,221.33 554.621,221.17 547.533,224.913 C540.106,228.835 534.549,234.274 535.05,243.105 C535.593,252.676 538.559,260.552 546.284,266.326 C552.185,270.738 558.864,274.02 564.844,278.343 C567.741,280.438 570.851,282.556 573.037,285.426 C575.242,288.958 574.772,285.963 571.626,276.444 C571.592,277.098 571.034,278.03 570.757,278.601 C569.703,280.776 568.125,282.702 566.612,284.565 C551.971,302.592 531.058,295.637 513.032,287.379 C510.132,286.051 510.863,293.731 510.974,294.834 C511.242,297.487 511.953,305.24 514.968,306.621 C531.609,314.244 550.7,321.621 566.532,308.382 C573.247,302.767 578.332,294.857 577.911,285.913 C577.455,276.239 574.368,268.181 566.846,262.061 C560.992,257.299 554.472,253.614 548.104,249.618 C545.264,247.836 542.203,245.887 540.04,243.286 C539.832,242.559 539.659,242.33 539.52,242.599 C545.126,253.426 539.229,256.901 541.824,252.272 C542.8,250.531 544.44,249.171 545.943,247.912 C553.012,241.989 561.909,241.186 570.761,241.56 C578.897,241.903 587.469,243.364 594.968,246.621 C597.888,247.89 597.142,240.32 597.026,239.166 C596.765,236.574 596.038,228.685 593.032,227.379" id="Fill-15" fill="#0E0E0E" sketch:type="MSShapeGroup"></path>
                <path d="M146.263,595.152 C140.193,598.911 137.316,603.272 137.295,610.508 C137.273,617.852 139.435,627.239 145.871,631.654 C149.398,634.073 154.469,634.88 158.335,632.894 C164.391,629.783 164.902,621.506 164.703,615.583 C164.631,613.437 163.663,600.759 159.794,601.169 C150.405,602.164 142.698,607.55 138.145,615.771 C135.553,620.451 137.828,631.099 141.494,634.764 C147.671,640.94 155.54,642.149 162.381,636.372 C165.981,633.332 160.272,615.388 157.619,617.628 C151.639,622.678 144.672,620.635 139.559,615.522 C140.675,621.853 141.791,628.183 142.907,634.514 C147.281,626.617 154.259,621.82 163.267,620.865 C161.631,616.061 159.995,611.256 158.359,606.452 C158.418,608.229 157.731,611.269 155.318,612.926 C152.94,614.558 149.804,614.57 147.106,613.927 C145.819,613.62 144.574,612.85 143.497,612.111 C143.297,611.973 142.148,610.999 142.38,611.252 C142.106,610.953 141.09,609.182 141.818,610.618 C143.096,613.856 143.695,617.216 143.615,620.696 C143.485,621.472 143.513,621.497 143.697,620.774 C143.808,620.404 144.364,619.647 144.672,619.207 C145.965,617.364 147.851,616.016 149.737,614.848 C154.434,611.939 147.82,594.188 146.263,595.152" id="Fill-16" fill="#0E0E0E" sketch:type="MSShapeGroup"></path>
                <path d="M147.348,670.295 C153.154,684.111 153.671,699.749 157.898,714.07 C158.075,714.67 160.545,723.046 162.381,720.372 C164.427,717.391 163.016,711.024 162.102,707.93 C156.982,690.581 155.726,672.534 148.652,655.705 C147.213,652.28 145.203,652.891 144.892,656.368 C144.474,661.045 145.543,666.001 147.348,670.295" id="Fill-17" fill="#0E0E0E" sketch:type="MSShapeGroup"></path>
                <path d="M155.619,653.628 C154.213,654.792 153.917,651.635 156.332,656.142 C156.909,661.697 157.485,667.253 158.061,672.808 C158.364,672.278 160.895,672.124 161.533,672.04 C160.376,665.475 159.218,658.91 158.061,652.344 C153.221,654.244 148.957,657.252 144.209,659.348 C140.302,661.073 143.463,677.293 146.914,678.817 C154.219,682.043 162.141,680.782 169.652,678.951 C168.495,672.385 167.337,665.82 166.179,659.255 C160.567,662.296 156.49,667.292 151.224,670.807 C149.11,672.218 149.722,676.374 149.935,678.489 C150.162,680.744 151,689.38 153.928,690.276 C158.295,691.612 161.982,694.345 166.466,695.432 C165.094,689.025 163.721,682.619 162.349,676.212 C154.034,682.584 145.711,688.941 137.749,695.753 C135.816,697.408 137.126,703.632 137.472,705.594 C137.934,708.214 138.759,714.082 141.867,714.973 C146.661,716.347 151.463,718.198 155.254,721.526 C158.777,724.617 153.532,729.634 154.164,712.006 C154.157,712.202 153.211,713.629 153.172,713.694 C151.234,716.871 147.872,719.244 144.871,721.284 C142.763,722.717 143.367,726.832 143.582,728.966 C143.836,731.482 144.583,739.539 147.575,740.753 C153.25,743.054 166.024,743.708 168.58,750.375 C169.076,751.667 171.717,757.538 172.841,753.267 C173.936,749.109 172.926,743.553 171.42,739.625 C169.316,734.138 166.763,729.264 161.323,726.552 C156.439,724.117 150.697,723.562 145.64,721.511 C146.542,728.001 147.443,734.49 148.344,740.98 C152.455,738.185 156.679,735.165 158.949,730.609 C161.558,725.37 160.553,718.573 159.174,713.144 C156.42,702.295 148.527,698.182 138.394,695.277 C139.767,701.683 141.139,708.09 142.512,714.497 C150.474,707.684 158.797,701.327 167.111,694.955 C169.063,693.46 167.712,686.945 167.389,685.115 C166.948,682.612 166.09,676.486 162.994,675.736 C159.073,674.786 155.834,672.209 151.993,671.034 C152.894,677.523 153.796,684.013 154.697,690.503 C159.947,686.999 164.088,681.967 169.652,678.951 C173.493,676.869 169.74,658.386 166.179,659.255 C159.405,660.907 151.619,662.508 144.978,659.575 C145.88,666.065 146.781,672.554 147.682,679.044 C152.43,676.948 156.694,673.94 161.533,672.04 C165.469,670.496 161.944,651.834 158.061,652.344 C156.653,652.529 154.139,652.592 153.299,654.065 C151.375,657.435 152.698,663.043 153.578,666.507 C154.442,669.91 156.249,675.793 160.381,672.372 C163.986,669.387 158.328,651.385 155.619,653.628" id="Fill-18" fill="#0E0E0E" sketch:type="MSShapeGroup"></path>
                <path d="M244.264,623.152 C242.829,623.039 241.605,622.901 240.256,622.364 C239.689,622.1 239.172,621.761 238.703,621.347 C239.258,633.176 240.097,636.719 241.222,631.976 C241.966,629.206 244.247,626.713 246.196,624.72 C248.76,622.1 246.377,605.564 242.079,605.501 C241.067,605.656 240.259,605.341 239.655,604.553 C240.772,610.884 241.888,617.215 243.004,623.546 C245.796,619.858 248.608,618.673 248.518,613.544 C248.412,607.555 246.88,600.673 242.331,596.475 C242.075,596.399 241.819,596.324 241.563,596.248 C231.673,601.794 223.741,609.617 220.96,620.867 C218.248,631.842 221.249,648.34 232.968,652.621 C235.94,653.706 235.158,646.477 235.026,645.166 C234.783,642.755 234.002,634.464 231.032,633.379 C229.694,632.89 228.484,632.357 227.244,631.657 C222.248,628.836 227.21,625.718 226.568,637.957 C226.701,635.423 228.133,632.815 229.277,630.62 C230.862,627.579 232.943,625.198 235.424,622.85 C236.027,622.28 244.497,615.815 244.693,616.274 C244.117,610.718 243.54,605.163 242.964,599.607 C241.604,601.514 239.659,602.93 238.242,604.803 C235.328,608.652 238.103,620.878 241.591,623.795 C242.855,624.853 243.924,625.173 245.552,625.197 C244.179,618.79 242.806,612.384 241.434,605.977 C236.203,611.323 234.141,617.733 234.89,625.17 C235.75,633.706 238.202,642.097 247.737,642.848 C250.315,643.051 249.33,623.551 244.264,623.152" id="Fill-19" fill="#0066FF" sketch:type="MSShapeGroup"></path>
                <path d="M242.102,677.93 C239.77,684.837 240.55,687.861 244.444,687.001 C243.287,680.435 242.129,673.87 240.971,667.305 C237.278,669.135 233.459,670.553 230.054,672.914 C226.626,675.29 228.977,692.453 233.527,692.61 C235.843,692.69 237.806,692.427 240.017,691.731 C244.183,690.42 240.028,671.203 236.544,672.035 C233.394,672.787 230.365,673.916 227.253,674.8 C223.343,675.909 226.539,694.296 230.726,694.496 C235.467,694.722 239.84,693.937 244.432,692.841 C248.508,691.868 245.008,674 240.959,673.145 C225.44,669.869 209.638,670.975 193.906,671.295 C195.064,677.86 196.221,684.425 197.379,690.991 C211.234,690.052 224.64,686.497 238.1,683.3 C242.009,682.371 238.825,664.038 234.627,663.604 C232.287,663.362 229.969,663.051 227.648,662.668 C228.806,669.233 229.964,675.799 231.121,682.364 C233.128,681.82 235.277,681.165 237.349,680.962 C235.976,674.555 234.604,668.148 233.231,661.742 C228.239,665.487 225.693,671.284 221.368,675.658 C218.507,678.55 221.201,694.042 225.486,694.877 C244.459,698.578 263.502,687.732 280.642,681.161 C279.269,674.754 277.897,668.347 276.524,661.941 C271.462,665.861 266.306,669.648 261.053,673.309 C257.047,676.1 260.433,688.83 262.947,691.897 C267.259,697.156 262.285,689.471 263.167,685.208 C262.896,686.516 262.103,687.636 261.361,688.716 C259.248,691.79 256.162,694.216 253.255,696.489 C247.654,700.868 241.067,704.5 236.561,710.109 C234.247,712.991 236.152,729.122 240.679,729.329 C244.197,729.49 247.623,729.996 251.15,729.738 C254.53,729.491 252.205,710.13 247.677,710.042 C234.415,709.785 223.661,722.606 218.216,733.389 C215.185,739.392 213.52,746.057 213.884,752.798 C214.159,757.886 214.694,764.894 219.419,767.86 C222.487,769.786 224.831,767.839 227.737,766.848 C232.165,765.337 227.243,746.135 224.263,747.152 C220.895,748.301 219.522,749.898 216.089,747.743 C217.469,752.472 218.849,757.201 220.229,761.929 C219.86,755.086 225.542,746.835 229.966,741.47 C235.191,735.135 242.603,729.573 251.15,729.738 C249.992,723.173 248.834,716.607 247.677,710.042 C244.15,710.3 240.724,709.794 237.206,709.633 C238.579,716.04 239.951,722.446 241.324,728.853 C247.599,721.04 257.412,716.889 264.31,709.657 C273.04,700.504 270.062,683.479 262.632,674.417 C263.264,680.612 263.895,686.809 264.526,693.005 C270.217,689.039 275.802,684.931 281.287,680.684 C284.272,678.372 280.121,660.332 277.169,661.464 C260.029,668.036 240.986,678.882 222.013,675.181 C223.385,681.588 224.758,687.994 226.13,694.401 C230.456,690.027 233.002,684.23 237.994,680.485 C240.833,678.355 237.78,660.882 233.876,661.265 C231.804,661.469 229.655,662.123 227.648,662.668 C223.613,663.762 227.004,681.684 231.121,682.364 C233.442,682.747 235.76,683.058 238.1,683.3 C236.942,676.735 235.785,670.169 234.627,663.604 C221.167,666.801 207.761,670.356 193.906,671.295 C190.542,671.522 192.856,691.083 197.379,690.991 C213.111,690.671 228.913,689.565 244.432,692.841 C243.274,686.276 242.116,679.71 240.959,673.145 C236.367,674.241 231.994,675.026 227.253,674.8 C228.411,681.365 229.568,687.93 230.726,694.496 C233.838,693.613 236.867,692.483 240.017,691.731 C238.86,685.166 237.702,678.6 236.544,672.035 C234.333,672.73 232.37,672.994 230.054,672.914 C231.212,679.479 232.369,686.044 233.527,692.61 C236.932,690.25 240.751,688.831 244.444,687.001 C248.218,685.131 244.997,666.871 240.971,667.305 C233.696,668.089 236.698,679.533 237.898,684.07 C238.062,684.694 240.555,693.033 242.381,690.372 C244.466,687.334 242.939,681.097 242.102,677.93" id="Fill-20" fill="#0066FF" sketch:type="MSShapeGroup"></path>
                <path d="M364.264,617.152 C360.837,617.456 357.68,617.364 354.327,616.554 C355.607,618.814 356.886,621.073 358.166,623.332 C359.417,628.169 357.78,628.814 359.177,626.36 C359.872,625.138 360.965,624.53 362.231,624.056 C365.392,622.871 368.396,624.994 370.573,627.034 C369.457,620.703 368.34,614.372 367.224,608.041 C364.514,610.206 362.572,613.178 359.712,615.166 C355.542,618.066 359.152,631.858 362.416,634.635 C363.609,635.65 364.655,636.669 365.641,637.886 C364.795,631.849 363.949,625.811 363.103,619.774 C360.124,625.857 357.099,631.916 354.028,637.953 C351.846,642.24 353.319,652.509 356.566,656.065 C360.911,660.823 363.887,660.658 369.737,658.848 C374.086,657.502 369.421,638.175 366.263,639.152 C362.619,640.28 359.266,641.886 356.251,638.584 C357.098,644.622 357.944,650.659 358.79,656.696 C361.861,650.66 364.886,644.6 367.866,638.517 C370.089,633.978 368.468,624.279 365.327,620.406 C363.847,618.581 362.271,616.916 360.481,615.393 C361.383,621.883 362.284,628.372 363.185,634.862 C366.519,632.544 368.843,629.296 371.987,626.784 C373.933,625.23 372.596,618.823 372.264,616.944 C371.733,613.933 370.984,609.99 368.638,607.792 C364.569,603.98 359.257,602.604 355.004,606.841 C349.819,612.008 352.417,623.505 353.961,629.472 C354.493,631.528 355.324,635.652 357.8,636.25 C361.153,637.061 364.31,637.152 367.737,636.848 C371.24,636.538 368.621,616.766 364.264,617.152" id="Fill-21" fill="#0E0E0E" sketch:type="MSShapeGroup"></path>
                <path d="M372.263,637.152 C364.552,641.16 356.397,643.855 347.626,642.69 C348.998,649.096 350.371,655.503 351.743,661.91 C358.271,656.01 365.604,651.055 371.407,644.382 C373.895,641.521 371.743,625.524 367.289,625.162 C360.279,624.592 352.851,626.346 346.356,622.973 C347.473,629.304 348.589,635.635 349.705,641.966 C350.794,640.38 351.766,639.243 353.405,638.15 C357.003,635.752 354.472,619.007 349.932,618.454 C346.602,618.049 343.269,617.757 339.975,617.106 C341.132,623.671 342.29,630.236 343.448,636.802 C350.211,636.856 356.973,636.872 363.737,636.848 C366.791,636.837 365.014,617.135 360.263,617.152 C353.5,617.176 346.738,617.16 339.975,617.106 C336.81,617.08 338.903,635.904 343.448,636.802 C346.742,637.453 350.075,637.745 353.405,638.15 C352.248,631.585 351.09,625.019 349.932,618.454 C347.9,619.809 346.338,621.19 344.943,623.223 C342.58,626.665 344.314,640.15 348.292,642.215 C355.404,645.908 363.104,644.235 370.762,644.858 C369.39,638.452 368.017,632.045 366.644,625.638 C360.841,632.312 353.508,637.267 346.981,643.166 C344.08,645.788 346.9,661.828 351.099,662.386 C359.87,663.551 368.025,660.856 375.737,656.848 C380.415,654.416 374.289,636.099 372.263,637.152" id="Fill-22" fill="#0E0E0E" sketch:type="MSShapeGroup"></path>
                <path d="M366.263,673.152 C356.47,676.549 346.607,679.608 336.34,681.191 C332.528,681.779 335.598,700.199 339.813,700.887 C356.108,703.551 372.586,702.995 389.031,702.841 C392.116,702.812 390.288,683.133 385.558,683.145 C365.761,683.196 345.959,683.69 326.172,682.803 C327.329,689.369 328.487,695.934 329.645,702.5 C344.75,697.726 360.645,697.166 376.367,697.396 C375.209,690.83 374.052,684.265 372.894,677.7 C368.942,680.572 366.721,684.895 363.074,688.031 C360.071,690.614 363.053,706.593 367.192,707.251 C377.963,708.962 388.73,706.701 399.543,707.353 C398.385,700.788 397.227,694.222 396.07,687.657 C376.814,694.462 356.901,699.306 338.008,707.142 C334.044,708.786 337.732,727.487 341.481,726.838 C354.299,724.618 368.265,722.626 380.916,726.734 C379.799,720.404 378.683,714.073 377.567,707.742 C373.076,713.811 368.374,719.704 363.461,725.436 C360.543,728.842 363.369,740.558 366,743.548 C370.427,748.58 365.484,740.527 366.016,737.516 C365.783,738.833 365.39,740.13 365.048,741.422 C364.201,744.616 363.85,747.757 363.786,751.055 C363.62,759.684 366.599,768.726 372.968,774.621 C375.311,776.79 375.067,767.578 375.026,767.166 C374.653,763.463 373.945,758.075 371.032,755.379 C366.853,751.51 370.916,752.078 370.176,760.258 C370.274,759.174 370.711,758.029 370.99,756.978 C371.642,754.517 372.17,752.024 372.314,749.476 C372.76,741.575 371.046,732.161 365.685,726.068 C366.532,732.105 367.378,738.142 368.224,744.18 C373.137,738.447 377.839,732.554 382.329,726.485 C384.072,724.13 383.057,719.2 382.607,716.645 C382.28,714.792 381.333,708.257 378.98,707.492 C365.624,703.155 351.593,704.789 338.008,707.142 C339.166,713.707 340.324,720.273 341.481,726.838 C360.374,719.002 380.287,714.158 399.543,707.353 C403.481,705.962 400.257,687.909 396.07,687.657 C385.257,687.005 374.49,689.265 363.719,687.555 C365.091,693.961 366.464,700.368 367.836,706.774 C371.044,704.015 372.918,699.903 376.367,697.396 C379.703,694.971 377.475,677.767 372.894,677.7 C357.172,677.47 341.277,678.03 326.172,682.803 C322.247,684.044 325.466,702.312 329.645,702.5 C349.432,703.386 369.234,702.892 389.031,702.841 C387.873,696.276 386.716,689.71 385.558,683.145 C369.113,683.299 352.635,683.855 336.34,681.191 C337.497,687.757 338.655,694.322 339.813,700.887 C350.08,699.304 359.943,696.245 369.737,692.848 C374.178,691.307 369.211,672.13 366.263,673.152" id="Fill-23" fill="#0E0E0E" sketch:type="MSShapeGroup"></path>
                <path d="M72.263,599.152 C69.728,600.572 67.167,601.935 64.573,603.245 C65.099,603.614 65.626,603.984 66.152,604.353 C65.27,603.167 64.378,601.989 63.496,600.803 C59.923,595.994 62.907,613.864 64.653,607.245 C64.028,607.696 63.403,608.148 62.779,608.599 C63.748,609.445 64.856,610.333 65.486,611.488 C56.799,595.55 67.614,599.544 62.878,601.624 C60.582,602.631 57.854,600.695 56.068,599.525 C53.374,597.76 53.936,606.243 54.01,606.98 C54.339,610.246 54.985,616.623 58.003,618.767 C58.811,619.341 59.544,619.849 60.125,620.649 C49.92,606.601 61.46,602.945 56.962,607.828 C55.891,608.99 54.044,609.461 52.566,609.795 C50.82,610.189 48.757,610.185 47.042,609.645 C46.126,609.356 45.311,608.844 44.532,608.298 C41.98,606.508 43.899,603.24 44.957,612.77 C44.527,615.331 44.097,617.892 43.667,620.453 C53.953,615.129 64.98,619.152 72.887,626.763 C71.986,620.274 71.084,613.784 70.183,607.295 C66.279,609.488 62.669,610.703 58.188,610.999 C59.561,617.406 60.933,623.812 62.306,630.219 C66.036,626.941 68.812,624.339 73.677,622.851 C72.304,616.445 70.932,610.038 69.559,603.632 C62.273,612.292 48.895,614.387 41.843,604.26 C39.343,600.671 38.802,607.001 38.828,608.434 C38.903,612.711 39.644,618.131 42.157,621.74 C50.432,633.623 65.252,633.155 74.322,622.375 C76.462,619.831 73.904,602.024 70.204,603.155 C64.837,604.796 61.655,607.862 57.543,611.476 C54.864,613.83 57.59,630.965 61.661,630.695 C66.142,630.399 69.752,629.184 73.656,626.991 C75.816,625.777 75.141,621.249 74.945,619.309 C74.566,615.541 73.839,610.301 70.952,607.522 C62.826,599.699 50.797,595.269 40.195,600.756 C38.031,601.876 38.699,606.583 38.905,608.439 C40.041,618.668 44.752,633.504 57.988,628.938 C62.515,627.377 63.835,623.562 63.882,619.086 C63.955,612.078 62.067,603.784 56.068,599.525 C56.713,605.939 57.358,612.353 58.003,618.767 C63.88,622.617 69.142,622.354 70.136,614.647 C71.29,605.697 67.609,595.264 60.844,589.357 C59.825,588.468 59.148,590.034 58.97,590.711 C55.978,602.057 59.731,612.782 66.467,621.833 C66.805,622.504 67.332,622.874 68.046,622.941 C70.64,621.631 73.201,620.269 75.737,618.848 C80.432,616.218 74.092,598.128 72.263,599.152" id="Fill-24" fill="#0066FF" sketch:type="MSShapeGroup"></path>
                <path d="M64.264,633.152 C51.858,633.151 39.453,633.193 27.048,633.049 C23.958,633.013 25.886,651.964 30.521,652.745 C40.965,654.503 51.533,655.062 62.108,655.286 C60.951,648.721 59.793,642.155 58.635,635.59 C45.397,637.519 32.037,637.166 18.702,637.494 C15.392,637.575 17.857,655.907 21.406,656.963 C45.085,664.004 69.913,661.895 94.28,662.756 C93.122,656.19 91.965,649.625 90.807,643.059 C80.571,643.96 70.727,646.253 61.707,651.308 C57.968,653.405 60.798,670.639 65.18,671.005 C71.693,671.548 77.238,675.682 83.556,677.086 C82.183,670.68 80.811,664.273 79.438,657.867 C75.023,661.49 72.267,666.775 66.904,669.191 C63.063,670.921 66.095,687.245 69.608,688.66 C73.538,690.244 76.716,693.127 80.708,694.582 C79.592,688.251 78.476,681.92 77.359,675.589 C73.019,680.845 67.437,684.784 62.164,689.033 C56.611,693.506 52.155,698.5 48.471,704.6 C40.702,717.466 35.409,731.811 29.619,745.628 C28.027,749.427 28.919,754.215 29.898,758.07 C29.974,758.372 33.167,767.269 34.381,764.372 C40.009,750.941 45.314,737.289 52.504,724.592 C56.005,718.411 60.332,713.338 65.745,708.749 C71.31,704.031 77.439,700.004 82.122,694.332 C83.928,692.145 82.825,686.902 82.4,684.492 C82.058,682.553 81.15,676.206 78.773,675.34 C74.78,673.885 71.603,671.002 67.672,669.418 C68.574,675.908 69.475,682.398 70.377,688.887 C76.307,686.216 79.339,680.599 84.201,676.61 C86.142,675.017 84.815,668.68 84.478,666.769 C84.046,664.32 83.172,658.077 80.083,657.39 C73.746,655.982 68.308,651.859 61.707,651.308 C62.865,657.874 64.023,664.439 65.18,671.005 C74.2,665.949 84.044,663.657 94.28,662.756 C97.725,662.452 95.294,643.218 90.807,643.059 C67.118,642.223 42.499,644.569 19.471,637.721 C20.372,644.21 21.273,650.7 22.175,657.19 C35.51,656.862 48.87,657.216 62.108,655.286 C65.752,654.755 62.982,635.682 58.635,635.59 C48.06,635.366 37.492,634.807 27.048,633.049 C28.206,639.614 29.364,646.179 30.521,652.745 C42.926,652.889 55.331,652.847 67.737,652.848 C70.772,652.848 69.029,633.152 64.264,633.152" id="Fill-25" fill="#0066FF" sketch:type="MSShapeGroup"></path>
                <path d="M466,635 C463.737,636.557 461.261,637.268 458.572,637.133 C455.987,627.514 460.354,618.609 469.691,615.027 C485.594,624.431 469.091,639.722 455.885,638.681 C451.208,628.22 460.715,620.469 470.99,621.256 C463.767,626.141 456.205,626.618 451.596,620.555 C458.893,612.566 471.178,613.404 479.543,619.189 C462.551,624.804 441.479,615.396 427.959,604.722 C437.288,599.528 450.484,599.118 459.784,604.929 C457.54,607.91 458.715,609.906 458,613" id="Fill-26" fill="#64E178" sketch:type="MSShapeGroup"></path>
                <path d="M488.263,649.152 C477.369,652.125 467.436,657.432 456.795,661.08 C444.109,665.43 431.484,664.14 419.081,659.425 C419.982,665.915 420.883,672.405 421.785,678.894 C427.319,674.992 433.896,672.961 440.573,672.157 C444.137,671.728 441.504,652.576 437.1,652.461 C431.567,652.316 426.08,652.604 420.571,653.113 C417.047,653.438 419.625,672.308 424.044,672.809 C453.164,676.107 484.903,668.379 512.547,680.628 C511.646,674.138 510.744,667.649 509.843,661.159 C498.785,666.197 486.626,667.094 474.874,669.604 C470.948,670.443 474.177,688.687 478.347,689.3 C483.786,690.099 488.354,693.376 493.514,695.073 C492.398,688.742 491.281,682.411 490.165,676.08 C482.878,682.052 472.519,683.46 463.454,684.326 C453.137,685.311 442.742,684.94 432.395,685.002 C429.296,685.021 431.166,704.226 435.868,704.699 C467.111,707.84 498.347,711.242 529.296,716.631 C528.138,710.066 526.98,703.501 525.823,696.935 C508.353,697.536 490.999,695.398 473.601,694.209 C470.286,693.982 473.194,711.993 476.305,713.678 C480.704,716.06 482.938,720.201 486.293,723.721 C485.392,717.231 484.491,710.741 483.589,704.252 C459.259,716.203 431.638,704.633 406.708,713.607 C402.883,714.984 405.953,731.921 409.412,733.076 C434.041,741.301 461.47,744.404 482.774,760.358 C481.658,754.027 480.541,747.696 479.425,741.365 C474.118,752.469 466.848,762.485 461.619,773.628 C459.902,777.286 460.952,782.347 461.898,786.07 C461.987,786.421 465.033,795.245 466.381,792.372 C471.611,781.228 478.88,771.212 484.188,760.109 C486.294,755.703 485,744.232 480.839,741.116 C459.529,725.158 432.101,722.058 407.477,713.834 C408.378,720.324 409.279,726.814 410.181,733.303 C435.111,724.329 462.732,735.9 487.062,723.948 C489.246,722.875 488.534,718.083 488.351,716.266 C487.958,712.358 487.18,707.439 484.358,704.479 C480.951,700.906 478.885,696.881 474.37,694.436 C475.271,700.925 476.172,707.415 477.074,713.905 C494.472,715.095 511.826,717.233 529.296,716.631 C532.647,716.516 530.289,697.713 525.823,696.935 C494.874,691.545 463.638,688.143 432.395,685.002 C433.552,691.568 434.71,698.133 435.868,704.699 C454.655,704.586 479.336,707.6 494.928,694.824 C497.732,692.526 495.05,676.973 491.579,675.831 C485.882,673.957 480.897,670.488 474.874,669.604 C476.032,676.169 477.19,682.735 478.347,689.3 C490.099,686.79 502.258,685.893 513.316,680.855 C517.211,679.081 514.083,662.924 510.612,661.386 C482.297,648.84 450.362,656.487 420.571,653.113 C421.729,659.678 422.886,666.243 424.044,672.809 C429.553,672.3 435.04,672.013 440.573,672.157 C439.415,665.592 438.258,659.026 437.1,652.461 C430.423,653.265 423.846,655.296 418.312,659.198 C416.216,660.676 416.804,664.707 417.023,666.88 C417.269,669.33 418.037,677.535 421.016,678.667 C433.176,683.29 445.331,685.102 457.99,681.494 C469.567,678.195 480.081,672.029 491.737,668.848 C495.982,667.689 491.627,648.234 488.263,649.152" id="Fill-27" fill="#64E178" sketch:type="MSShapeGroup"></path>
                <path d="M587.619,625.628 C585.439,627.394 583.529,627.612 581.017,626.44 C581.813,627.855 582.609,629.27 583.404,630.685 C586.496,640.811 582.496,639.157 586.623,635.178 C588.182,633.675 590.585,632.967 592.617,632.421 C596.391,631.406 600.944,631.386 604.573,632.916 C603.303,626.954 602.034,620.991 600.764,615.028 C600.295,616.903 599.437,618.032 597.765,619.056 C594.006,621.359 597.845,639.761 601.238,638.752 C606.979,637.046 613.019,637.358 618.937,637.008 C617.779,630.442 616.621,623.877 615.464,617.312 C608.427,621.155 601.112,624.419 595.091,629.828 C592.315,632.321 595.016,648.859 599.208,649.048 C605.124,649.314 609.701,652.981 615.057,655.027 C613.726,651.098 612.395,647.169 611.064,643.24 C611.241,640.507 610.759,639.97 609.619,641.628 C607.265,643.987 609.235,651.462 609.898,654.07 C610.166,655.125 612.126,662.631 614.381,660.372 C617.81,656.936 617.426,652.079 617.115,647.572 C616.948,645.146 616.048,636.902 613.122,635.785 C607.246,633.541 602.23,629.644 595.735,629.352 C597.108,635.758 598.481,642.165 599.853,648.571 C605.448,643.546 612.399,640.578 618.937,637.008 C622.605,635.005 619.667,617.063 615.464,617.312 C609.546,617.662 603.506,617.35 597.765,619.056 C598.922,625.622 600.08,632.187 601.238,638.752 C604.125,636.984 605.622,634.861 606.447,631.562 C607.146,628.765 606.756,625.617 606.264,622.827 C605.901,620.764 605.043,614.688 602.638,613.674 C595.464,610.65 584.996,611.631 580.181,618.375 C576.927,622.931 577.912,630.381 578.986,635.416 C579.799,639.229 580.481,644.529 584.371,646.343 C587.474,647.791 590.013,646.29 592.381,644.372 C595.99,641.449 590.393,623.382 587.619,625.628" id="Fill-28" fill="#FF4621" sketch:type="MSShapeGroup"></path>
                <path d="M586.381,680.372 C591.26,675.627 598.141,679.425 602.62,682.771 C601.718,676.281 600.817,669.791 599.916,663.302 C594.524,663.922 589.449,665.068 584.05,663.892 C585.207,670.458 586.365,677.023 587.523,683.588 C594.765,683.822 601.273,686.055 606.926,690.621 C606.025,684.131 605.124,677.642 604.222,671.152 C597.903,674.147 591.417,676.678 584.75,678.786 C580.568,680.108 584.207,697.546 588.223,698.482 C604.306,702.228 620.62,698.882 636.166,694.307 C640.245,693.106 636.788,675.352 632.693,674.611 C618.231,671.994 603.558,671.236 588.881,671.415 C585.655,671.454 587.803,690.343 592.354,691.111 C603.571,693.006 614.896,694.218 625.265,699.226 C624.363,692.737 623.462,686.247 622.561,679.757 C598.633,691.84 569.128,686.258 543.547,684.547 C544.92,690.954 546.292,697.36 547.665,703.767 C554.346,696.582 563.175,692.271 571.491,687.31 C570.119,680.904 568.746,674.497 567.374,668.09 C565.65,669.931 564.095,671.91 562.465,673.831 C559.724,677.061 562.162,691.929 566.583,693.051 C581.798,696.914 597.473,689.592 612.528,694.246 C611.411,687.916 610.295,681.585 609.179,675.254 C604.591,682.475 598.679,688.721 594.123,695.964 C592.089,699.198 593.414,714.645 598.241,715.183 C604.72,715.906 610.71,718.914 617.239,719.293 C616.081,712.728 614.924,706.162 613.766,699.597 C609.649,700.534 605.922,702.563 601.832,703.597 C597.57,704.674 601.653,721.267 604.536,723.066 C612.041,727.75 620.992,728.717 629.375,730.994 C628.002,724.587 626.629,718.181 625.257,711.774 C619.158,716.386 614.021,721.852 609.931,728.319 C607.128,732.753 609.909,742.43 612.47,746.431 C614.669,749.867 617.402,752.618 620.968,754.621 C623.767,756.194 623.116,748.063 623.026,747.166 C622.732,744.25 622.069,737.085 619.032,735.379 C616.104,733.734 613.969,731.785 612.155,728.951 C613.001,734.988 613.848,741.025 614.694,747.062 C618.783,740.595 623.921,735.129 630.019,730.517 C631.973,729.04 630.617,722.492 630.297,720.677 C629.842,718.096 629.006,712.141 625.902,711.298 C618,709.152 609.674,708.239 602.601,703.824 C603.502,710.314 604.403,716.803 605.305,723.293 C609.395,722.259 613.122,720.231 617.239,719.293 C621.091,718.416 617.991,699.842 613.766,699.597 C607.237,699.218 601.247,696.209 594.768,695.487 C596.141,701.894 597.513,708.3 598.886,714.707 C603.442,707.464 609.354,701.218 613.941,693.997 C615.578,691.42 614.704,686.906 614.219,684.157 C613.898,682.338 612.934,675.729 610.592,675.005 C594.87,670.144 578.882,677.359 563.11,673.355 C564.482,679.761 565.855,686.168 567.227,692.575 C568.858,690.653 570.413,688.674 572.136,686.834 C574.865,683.92 570.22,666.3 568.018,667.614 C559.254,672.842 549.943,677.453 542.902,685.024 C540.338,687.781 542.642,703.951 547.02,704.243 C572.601,705.954 602.106,711.536 626.034,699.453 C629.929,697.486 626.829,681.674 623.329,679.984 C612.481,674.744 600.621,673.398 588.881,671.415 C590.038,677.98 591.196,684.546 592.354,691.111 C607.031,690.932 621.704,691.69 636.166,694.307 C635.009,687.741 633.851,681.176 632.693,674.611 C617.147,679.186 600.833,682.532 584.75,678.786 C585.907,685.351 587.065,691.916 588.223,698.482 C594.89,696.374 601.376,693.843 607.695,690.848 C609.883,689.811 609.164,684.953 608.984,683.166 C608.634,679.69 607.972,673.786 604.991,671.379 C598.988,666.531 591.724,664.14 584.05,663.892 C580.987,663.794 582.951,682.593 587.523,683.588 C592.922,684.764 597.997,683.618 603.389,682.998 C607.687,682.503 603.185,665.396 600.685,663.529 C594.996,659.28 587.462,655.946 581.619,661.628 C579.251,663.93 581.247,671.508 581.898,674.07 C582.175,675.163 584.096,682.594 586.381,680.372" id="Fill-29" fill="#FF4621" sketch:type="MSShapeGroup"></path>
                <path d="M716.264,625.152 C708.67,630.155 701.113,635.71 691.796,636.633 C693.322,642.671 694.848,648.709 696.374,654.748 C696.902,652.309 697.18,649.97 697.244,647.479 C697.316,644.737 696.516,649.241 697.315,647.663 C697.92,646.467 699.026,645.442 699.919,644.478 C702.534,641.658 698.25,623.91 695.801,625.258 C690.485,628.186 685.135,629.649 679.22,630.843 C680.378,637.408 681.535,643.973 682.693,650.539 C689.332,648.395 696.054,646.652 702.898,645.3 C706.756,644.538 703.644,626.113 699.425,625.604 C689.395,624.394 679.409,622.745 669.277,623.511 C665.644,623.786 668.703,641.666 671.981,642.98 C674.45,643.97 676.689,645.259 678.968,646.621 C681.728,648.271 681.109,639.999 681.026,639.166 C680.723,636.162 680.069,629.194 677.032,627.379 C674.754,626.017 672.515,624.728 670.046,623.739 C670.947,630.228 671.849,636.718 672.75,643.208 C682.882,642.441 692.868,644.09 702.898,645.3 C701.74,638.735 700.583,632.169 699.425,625.604 C692.581,626.956 685.859,628.699 679.22,630.843 C675.135,632.162 679.059,651.272 682.693,650.539 C688.607,649.345 693.958,647.882 699.274,644.955 C697.902,638.548 696.529,632.141 695.157,625.735 C693.47,627.554 692.227,629.197 691.442,631.561 C690.72,633.739 691.056,636.53 690.692,638.214 C689.894,641.899 690.516,645.948 691.431,649.551 C691.772,650.894 693.005,656.553 695.269,656.329 C704.586,655.406 712.143,649.852 719.737,644.848 C724.423,641.76 717.648,624.24 716.264,625.152" id="Fill-30" fill="#64E178" sketch:type="MSShapeGroup"></path>
                <path d="M690.381,676.372 C692.647,674.638 694.958,674.472 697.663,674.937 C696.29,668.53 694.918,662.124 693.545,655.717 C688.976,661.24 681.218,661.651 674.554,661.358 C671.328,661.216 673.885,679.356 677.258,680.827 C685.893,684.592 695.094,686.911 703.988,689.966 C712.384,692.85 722.455,696.469 727.842,703.971 L725.304,685.86 C720.096,693.724 712.431,699.563 707.688,707.764 C705.331,711.841 707.057,723.916 711.037,726.757 C717.398,731.295 724.905,733 732.11,735.696 C734.855,736.722 737.983,738.101 739.909,740.398 C740.551,741.414 740.603,741.367 740.066,740.256 C738.113,735.252 739.579,733.109 738.763,736.342 C738.249,738.377 737.115,740.213 736.033,741.986 C732.057,748.501 726.433,754.003 725.318,761.875 C723.855,772.209 727.335,783.503 734.968,790.621 C737.302,792.798 737.067,783.572 737.026,783.166 C736.651,779.451 735.94,774.091 733.032,771.379 C732.266,770.729 731.567,770.012 730.936,769.228 C728.023,765.777 732,766.06 731.405,776.052 C731.477,774.854 732.33,773.504 732.871,772.48 C734.728,768.967 737.33,765.843 739.581,762.582 C745.246,754.377 746.024,746.126 744.647,736.366 C743.404,727.559 739.405,720.364 731.133,716.834 C723.701,713.663 715.809,712.301 709.102,707.515 C710.218,713.846 711.335,720.176 712.451,726.507 C717.193,718.307 724.859,712.467 730.066,704.603 C732.836,700.421 730.197,690.209 727.527,686.491 C716.007,670.449 692.187,668.938 675.323,661.585 C676.224,668.075 677.125,674.564 678.027,681.054 C685.426,681.379 693.298,680.516 698.308,674.46 C700.867,671.367 698.693,656.014 694.19,655.241 C690.672,654.636 688.38,655.516 685.619,657.628 C682.005,660.394 687.445,678.619 690.381,676.372" id="Fill-31" fill="#64E178" sketch:type="MSShapeGroup"></path>
                <path d="M794.263,629.152 C774.77,623.489 754.253,623.973 734.385,620.383 C735.543,626.948 736.701,633.513 737.858,640.079 C742.486,640.092 747.25,641.4 751.725,642.427 C759.363,644.179 766.909,646.356 774.3,648.957 C780.505,651.141 786.856,653.627 792.281,657.411 C793.201,658.052 794.053,658.78 794.849,659.569 C794.313,659.037 795.208,660.118 795.217,660.131 C792.584,656.353 793.588,645.518 792.972,646.642 C791.741,648.891 788.778,649.949 786.559,650.832 C787.085,651.202 787.612,651.571 788.138,651.94 C788.877,658.26 789.221,659.775 789.168,656.486 C789.191,655.513 789.193,654.539 789.172,653.566 C789.133,649.3 788.338,643.857 785.843,640.26 C783.343,636.655 782.815,643.018 782.828,644.434 C782.909,653.201 783.499,661.871 788.453,669.421 C788.791,670.092 789.318,670.461 790.032,670.529 C792.821,669.419 796.016,667.983 797.735,665.386 C800.85,660.68 798.887,652.266 797.177,647.454 C794.41,639.662 787.809,636.107 780.608,632.938 C772.06,629.177 763,626.497 753.979,624.138 C747.747,622.508 740.891,620.401 734.385,620.383 C731.223,620.373 733.286,639.252 737.858,640.079 C757.726,643.669 778.243,643.185 797.737,648.848 C799.958,649.494 798.763,639.121 798.659,638.531 C798.195,635.901 797.372,630.055 794.263,629.152" id="Fill-32" fill="#0E0E0E" sketch:type="MSShapeGroup"></path>
                <path d="M776.263,689.152 C770.448,691.769 764.599,691.106 760.443,685.961 C761.075,692.157 761.706,698.353 762.337,704.549 C766.977,705.15 771.644,705.076 776.143,706.525 C775.241,700.036 774.34,693.546 773.438,687.056 C766.778,685.525 761.135,681.835 757.524,675.999 C758.37,682.037 759.216,688.074 760.063,694.111 C770.485,683.405 789.464,693.031 800.119,698.547 C809.806,703.562 820.156,709.323 823.457,719.023 C824.423,721.862 825.239,724.754 826.101,727.625 C827.533,732.396 826.648,721.126 825.788,724.647 C825.493,725.853 825.221,726.973 825.021,728.211 C823.738,736.157 826.501,745.638 831.973,751.508 C841.186,761.391 857.599,759.771 869.737,762.848 C871.256,763.233 871.746,744.542 866.264,743.152 C859.425,741.418 852.318,740.925 845.398,739.583 C841.954,738.915 838.615,737.962 835.438,736.467 C834.142,735.858 832.983,735.037 831.873,734.143 C825.43,728.946 834.012,730.086 831.115,742.489 C833.07,734.119 831.816,726.315 829.322,718.14 C827.512,712.205 825.897,706.194 823.238,700.564 C817.792,689.035 805.796,683.057 794.899,677.639 C783.497,671.969 765.887,664.493 755.3,675.368 C753.892,676.814 754.486,680.884 754.656,682.574 C755.03,686.292 755.847,690.262 757.839,693.48 C762.239,700.589 768.834,704.895 776.911,706.752 C778.817,707.19 778.547,688.682 774.207,687.283 C769.143,685.651 764.094,685.53 758.864,684.853 C755.207,684.379 759.356,701.705 760.758,703.441 C765.723,709.588 772.238,712.222 779.737,708.848 C784.354,706.77 778.648,688.079 776.263,689.152" id="Fill-33" fill="#0E0E0E" sketch:type="MSShapeGroup"></path>
                <path d="M770.974,732.834 C772.554,749.254 780.148,762.029 791.043,773.961 C796.036,779.43 801.249,784.692 805.958,790.415 C808.253,793.205 810.345,796.149 812.232,799.228 C813.172,800.762 813.907,802.417 814.621,804.064 C814.898,804.702 815.152,806.163 814.974,804.834 C815.419,808.153 815.886,814.42 818.968,816.621 C821.574,818.482 821.115,809.836 821.026,809.166 C818.749,792.161 811.381,778.973 799.991,766.428 C795.054,760.99 789.864,755.786 785.17,750.13 C782.956,747.463 780.935,744.649 779.122,741.695 C778.439,740.581 777.797,739.346 777.324,738.127 C776.208,735.253 777.323,740.26 777.026,737.166 C776.711,733.896 776.041,727.528 773.032,725.379 C770.408,723.505 770.912,732.188 770.974,732.834" id="Fill-34" fill="#0E0E0E" sketch:type="MSShapeGroup"></path>
                <path d="M293.619,529.628 C289.806,535.744 285.018,541.06 279.171,545.298 C275.15,548.211 278.76,558.927 280.255,562.441 C281.94,566.401 284.192,570.052 286.554,573.639 C287.731,575.428 288.974,577.195 290.005,579.074 C290.274,579.602 290.538,580.133 290.797,580.666 C288.717,575.272 290.573,574.732 289.159,578.733 C287.757,582.699 289.279,588.594 290.581,592.375 C291.147,594.022 293.434,599.249 294.841,595.267 C297.819,586.843 296.331,576.904 293.18,568.732 C290.276,561.2 284.698,555.228 281.559,547.851 C281.921,553.565 282.282,559.279 282.643,564.994 C288.974,560.406 294.235,555.022 298.381,548.372 C300.392,545.147 298.95,539.266 298.102,535.93 C297.964,535.386 295.321,526.897 293.619,529.628" id="Fill-35" fill="#FAE164" sketch:type="MSShapeGroup"></path>
                <path d="M291.619,603.628 C288.306,606.358 290.261,615.24 290.917,618.603 C292.185,625.101 294.404,631.349 296.668,637.554 C299.102,644.228 301.601,650.877 303.708,657.665 C303.748,657.796 304.329,659.894 304.524,660.631 C304.7,661.311 304.869,661.994 305.03,662.678 C305.815,665.932 304.709,660.858 305.288,664.023 C305.482,665.235 305.497,665.29 305.332,664.188 C305.697,667.062 305.346,662.53 305.422,665.259 C305.398,664.388 305.221,666.496 305.159,666.733 C304.045,670.997 305.185,676.318 306.581,680.375 C307.042,681.717 309.735,687.505 310.841,683.267 C314.348,669.834 309.062,654.196 304.8,641.521 C302.706,635.291 300.331,629.159 298.122,622.97 C297.701,621.789 297.295,620.603 296.895,619.415 C296.712,618.865 296.533,618.314 296.358,617.762 C295.524,615.16 296.818,619.474 296.154,617.047 C295.278,613.853 296.335,618.995 296.388,620.008 C296.432,620.84 295.605,623.011 296.381,622.372 C299.987,619.4 294.342,601.384 291.619,603.628" id="Fill-36" fill="#FAE164" sketch:type="MSShapeGroup"></path>
                <path d="M462.264,539 L458.263,539 C457.14,539 456.939,541.761 456.892,542.292 C456.681,544.65 456.932,547.11 457.341,549.431 C457.75,551.752 458.343,554.209 459.348,556.352 C459.757,557.227 460.504,559 461.737,559 L465.737,559 C466.86,559 467.061,556.239 467.108,555.708 C467.319,553.35 467.068,550.89 466.659,548.569 C466.25,546.248 465.657,543.792 464.652,541.648 C464.243,540.774 463.496,539 462.264,539" id="Fill-37" fill="#0E0E0E" sketch:type="MSShapeGroup"></path>
                <path d="M384.263,527.152 C379.421,527.473 375.474,528.4 371.938,531.874 C370.042,533.737 371.284,539.579 371.661,541.714 C372.178,544.648 372.914,548.768 375.287,550.866 C380.2,555.209 384.067,560.429 390.399,562.803 C389.498,556.313 388.596,549.824 387.695,543.334 C381.761,544.463 375.981,545.983 369.89,545.504 C366.254,545.219 370.014,563.105 372.594,564.973 C374.73,566.52 376.558,568.358 378.548,570.08 C377.646,563.59 376.745,557.1 375.844,550.611 C372.818,552.551 370.036,554.961 367.519,557.518 C366.108,558.951 366.705,563.046 366.874,564.724 C367.209,568.05 367.808,572.934 370.057,575.63 C374.826,581.346 381.819,585.637 385.348,592.295 C386.984,595.383 388.771,595.396 389.108,591.632 C389.502,587.229 388.744,581.65 386.652,577.705 C382.385,569.654 375.437,564.975 369.742,558.15 C370.589,564.187 371.435,570.224 372.281,576.261 C374.419,574.09 376.746,571.955 379.317,570.307 C383.592,567.566 379.756,553.559 376.612,550.838 C374.623,549.116 372.795,547.279 370.659,545.732 C371.56,552.221 372.461,558.711 373.363,565.201 C379.454,565.679 385.234,564.159 391.168,563.03 C395.002,562.301 391.751,544.793 388.464,543.561 C382.132,541.187 378.264,535.967 373.352,531.624 C374.468,537.955 375.584,544.286 376.701,550.617 C379.768,547.604 383.618,547.121 387.737,546.848 C391.128,546.623 388.73,526.856 384.263,527.152" id="Fill-38" fill="#0E0E0E" sketch:type="MSShapeGroup"></path>
                <path d="M390.157,595.74 C394.891,602.794 401.229,608.666 406.834,615.005 C409.532,618.056 412.047,621.254 414.203,624.711 C416.9,629.036 413.65,623.921 414.205,621.128 C413.922,622.552 413.296,623.808 412.605,625.067 C409.66,630.432 406.159,634.409 405.438,640.748 C404.284,650.903 408.258,661.658 414.157,669.74 C416.713,673.241 417.199,667.081 417.172,665.566 C417.098,661.364 416.406,655.771 413.843,652.26 C412.647,650.622 411.53,649.015 410.648,647.187 C414.11,654.363 410.398,656.067 412.332,651.888 C413.535,649.287 415.405,646.997 416.916,644.575 C421.482,637.259 421.188,628.445 419.252,620.306 C415.002,602.441 399.564,592.745 389.843,578.26 C387.389,574.604 386.803,581.063 386.828,582.434 C386.904,586.768 387.685,592.056 390.157,595.74" id="Fill-39" fill="#0E0E0E" sketch:type="MSShapeGroup"></path>
                <path d="M562.263,515.152 C547.789,514.744 533.287,514.862 519.223,518.707 C515.311,519.776 518.503,538.143 522.696,538.403 C536.836,539.279 550.991,539.939 565.084,541.442 C563.711,535.035 562.338,528.629 560.966,522.222 C549.312,531.498 534.046,533.783 520.446,538.939 C516.532,540.423 519.73,558.473 523.919,558.635 C539.831,559.251 555.753,558.544 571.667,559.015 C570.295,552.608 568.922,546.202 567.549,539.795 C562.071,548.542 552.49,553.398 544.263,559.152 C541.631,560.993 542.888,566.899 543.341,569.469 C543.45,570.087 545.82,580.188 547.737,578.848 C556.332,572.835 566.586,567.681 572.312,558.538 C574.219,555.494 572.983,539.461 568.194,539.319 C552.28,538.847 536.358,539.555 520.446,538.939 C521.604,545.504 522.762,552.07 523.919,558.635 C538.198,553.222 553.493,550.705 565.728,540.966 C568.73,538.577 565.704,522.182 561.611,521.746 C547.518,520.243 533.363,519.583 519.223,518.707 C520.38,525.272 521.538,531.838 522.696,538.403 C536.76,534.558 551.262,534.441 565.737,534.848 C568.612,534.929 567.144,515.289 562.263,515.152" id="Fill-40" fill="#0066FF" sketch:type="MSShapeGroup"></path>
                <path d="M540.263,585.152 C535.709,584.723 531.907,584.813 527.996,587.415 C523.58,590.351 527.916,602.572 529.889,606.003 C534.358,613.775 542.57,617.634 549.243,623.176 C548.126,616.845 547.01,610.515 545.894,604.184 C537.329,616.33 523.97,624.006 519.159,638.733 C517.834,642.788 519.252,648.514 520.581,652.375 C521.117,653.933 523.515,659.326 524.841,655.267 C529.266,641.725 542.742,634.152 550.656,622.927 C553.457,618.955 550.894,606.913 547.307,603.934 C541.304,598.949 533.581,595.49 529.575,588.523 L531.468,607.111 C535.38,604.51 539.182,604.419 543.737,604.848 C546.222,605.082 545.381,585.634 540.263,585.152" id="Fill-41" fill="#0E0E0E" sketch:type="MSShapeGroup"></path>
                <path d="M638.381,554.372 C644.344,546.911 651.232,540.417 658.746,534.538 C661.653,532.264 658.701,515.43 654.628,515.319 C643.687,515.021 632.733,515.668 621.842,514.315 C623,520.881 624.157,527.446 625.315,534.012 C637.934,529.929 651.117,529.083 664.276,530.218 C663.119,523.652 661.961,517.087 660.804,510.521 C645.817,513.307 630.364,512.683 615.649,517.002 C611.235,518.298 615.778,533.278 617.543,535.591 C623.214,543.026 633.375,543.587 641.958,544.587 C646.509,545.118 651.194,545.588 655.494,547.255 C657.289,547.951 658.905,548.984 660.299,550.304 C661.439,551.383 660.659,552.377 659.534,546.858 C658.754,543.031 659.244,544.209 658.892,546.368 C658.183,550.72 659.504,556.361 661.348,560.295 C662.984,563.787 664.556,563.023 665.108,559.632 C666.453,551.376 665.198,541.377 660.828,534.136 C658.007,529.461 653.271,527.593 648.186,526.383 C642.624,525.058 636.834,524.797 631.188,523.967 C626.447,523.27 620.335,522.184 617.228,518.11 C617.859,524.306 618.491,530.502 619.122,536.699 C633.837,532.38 649.289,533.003 664.276,530.218 C668.069,529.513 665.068,510.889 660.804,510.521 C647.644,509.387 634.461,510.233 621.842,514.315 C617.836,515.612 621.154,533.495 625.315,534.012 C636.206,535.364 647.16,534.717 658.101,535.015 C656.728,528.608 655.356,522.202 653.983,515.795 C646.47,521.674 639.582,528.167 633.619,535.628 C631.398,538.406 633.147,545.116 633.898,548.07 C634.099,548.861 636.373,556.885 638.381,554.372" id="Fill-42" fill="#0E0E0E" sketch:type="MSShapeGroup"></path>
                <path d="M642.264,575.152 C622.984,584.022 625.98,608.32 630.383,625.392 C635.014,643.347 643.907,660.376 654.157,675.74 C656.603,679.406 657.196,672.927 657.172,671.566 C657.096,667.223 656.308,661.955 653.843,658.26 C646.422,647.138 639.876,635.185 635.572,622.499 C633.677,616.914 632.691,614.751 633.889,608.847 C635.216,602.307 639.809,597.575 645.737,594.848 C650.366,592.718 644.595,574.079 642.264,575.152" id="Fill-43" fill="#0E0E0E" sketch:type="MSShapeGroup"></path>
                <path d="M662.263,579.152 C656.622,579.065 651.16,579.199 645.665,580.604 C641.672,581.624 644.994,599.686 649.138,600.3 C654.142,601.041 659.039,602.317 664.087,602.766 C662.929,596.2 661.772,589.635 660.614,583.07 C645.907,584.097 622.3,584.831 613.82,599.322 C612.246,602.011 613.04,606.314 613.542,609.163 C613.916,611.283 614.752,617.231 617.169,618.315 C625.071,621.86 633.607,623.191 642.005,625.047 C640.479,619.009 638.953,612.97 637.427,606.932 C634.094,618.787 631.033,630.031 630.828,642.434 C630.758,646.642 631.706,652.206 634.157,655.74 C636.674,659.369 637.15,652.95 637.172,651.566 C637.333,641.876 640.513,632.702 643.109,623.466 C644.149,619.77 643.419,606.432 638.532,605.351 C630.652,603.609 622.649,602.399 615.233,599.073 C616.35,605.404 617.466,611.735 618.582,618.066 C622.798,610.861 631.326,608.089 638.981,606.159 C647.173,604.093 655.682,603.353 664.087,602.766 C667.49,602.528 665.122,583.47 660.614,583.07 C655.566,582.621 650.669,581.345 645.665,580.604 C646.823,587.169 647.98,593.734 649.138,600.3 C654.633,598.895 660.095,598.761 665.737,598.848 C668.685,598.893 667.093,579.226 662.263,579.152" id="Fill-44" fill="#0E0E0E" sketch:type="MSShapeGroup"></path>
                <path d="M737.419,539.625 C742.743,554.905 734.765,551.849 741.434,548.436 C743.34,547.461 745.525,547.014 747.609,546.619 C752.15,545.76 756.99,545.87 761.485,546.904 C760.113,540.498 758.74,534.091 757.368,527.685 C748.722,535.756 736.696,537.609 726.593,543.191 C722.565,545.417 725.81,561.813 730.066,562.887 C735.825,564.341 740.329,568.563 745.613,571.066 C744.711,564.576 743.81,558.087 742.908,551.597 C735.374,556.48 726.82,558.757 718.264,561.152 C713.997,562.346 718.412,581.779 721.737,580.848 C730.293,578.454 738.847,576.176 746.381,571.293 C750.048,568.917 747.433,553.603 743.677,551.824 C737.817,549.048 732.998,544.807 726.593,543.191 C727.751,549.757 728.908,556.322 730.066,562.887 C740.723,556.999 752.989,554.962 762.13,546.428 C765.159,543.6 762.18,528.168 758.012,527.208 C751.513,525.712 744.117,526.067 737.961,528.74 C729.707,532.324 732.248,543.679 734.581,550.375 C735.048,551.718 737.726,557.504 738.841,553.267 C739.959,549.02 738.826,543.662 737.419,539.625" id="Fill-45" fill="#FAE164" sketch:type="MSShapeGroup"></path>
                <path d="M783.736,608.848 C800.542,605.088 817.292,612.674 833.383,616.535 C832.226,609.97 831.068,603.404 829.91,596.839 C803.67,601.434 776.032,600.294 749.785,596.308 C750.943,602.874 752.1,609.439 753.258,616.005 C760.393,613.144 767.73,611.427 775.39,610.798 C778.811,610.517 776.403,591.039 771.917,591.102 C741.911,591.525 712.095,587.848 682.263,585.152 C679.754,584.925 680.632,604.387 685.737,604.848 C715.568,607.544 745.384,611.221 775.39,610.798 C774.233,604.233 773.075,597.667 771.917,591.102 C764.257,591.731 756.92,593.448 749.785,596.308 C745.757,597.923 749.078,615.37 753.258,616.005 C779.505,619.99 807.143,621.13 833.383,616.535 C837.396,615.832 833.935,597.805 829.91,596.839 C813.819,592.978 797.069,585.392 780.264,589.152 C776.181,590.065 780.097,609.662 783.736,608.848" id="Fill-46" fill="#FAE164" sketch:type="MSShapeGroup"></path>
                <path d="M253.032,557.379 C241.875,552.122 229.521,552.117 217.91,548.489 C218.812,554.979 219.713,561.469 220.614,567.958 C227.578,563.679 236.972,558.895 244.171,565.162 C243.269,558.673 242.368,552.183 241.467,545.693 C238.014,547.803 236.13,547.338 232.338,547.576 C233.864,553.614 235.39,559.653 236.916,565.691 C239.392,557.524 238.575,547.197 234.761,539.524 C231.7,533.365 226.975,530.311 220.264,529.152 C218.254,528.805 218.402,547.927 223.737,548.848 C226.431,549.313 228.73,550.113 231.027,551.593 C231.933,552.176 232.599,552.88 233.244,553.727 C229.968,549.426 232.808,543.962 231.233,549.157 C230.39,551.94 231.203,567.561 235.811,567.272 C239.602,567.034 241.487,567.5 244.94,565.389 C249.266,562.745 245.317,548.603 242.236,545.92 C234.518,539.201 224.71,543.611 217.141,548.262 C215.003,549.576 215.648,553.915 215.852,555.944 C216.081,558.217 216.912,566.815 219.846,567.731 C231.419,571.347 243.887,571.4 254.968,576.621 C257.856,577.982 257.134,570.242 257.026,569.166 C256.755,566.479 256.052,558.802 253.032,557.379" id="Fill-47" fill="#FF4621" sketch:type="MSShapeGroup"></path>
                <path d="M214.264,567.152 C204.565,567.489 194.936,568.624 185.54,571.106 C181.655,572.132 184.82,590.657 189.013,590.802 C198.372,591.124 209.513,591.704 215.992,599.484 C215.361,593.288 214.729,587.092 214.098,580.896 C200.469,585.361 185.96,582.313 172.301,579.558 C173.459,586.123 174.616,592.688 175.774,599.254 C181.497,598.033 186.332,599.178 191.818,600.891 C190.702,594.56 189.586,588.229 188.47,581.898 C179.474,590.174 174.303,601.068 171.159,612.733 C170.016,616.971 171.193,622.344 172.581,626.375 C173.052,627.745 175.705,633.483 176.841,629.267 C179.802,618.285 184.783,608.414 193.232,600.642 C195.896,598.192 193.474,582.77 189.883,581.649 C183.936,579.793 178.56,578.222 172.301,579.558 C168.282,580.415 171.694,598.431 175.774,599.254 C189.433,602.009 203.942,605.057 217.571,600.592 C221.899,599.174 217.607,584.321 215.677,582.004 C208.046,572.84 196.821,571.494 185.54,571.106 C186.698,577.671 187.855,584.236 189.013,590.802 C198.409,588.32 208.037,587.185 217.737,586.848 C220.962,586.736 218.877,566.992 214.264,567.152" id="Fill-48" fill="#FF4621" sketch:type="MSShapeGroup"></path>
                <path d="M66.157,537.74 C66.205,530.567 65.842,528.675 65.069,532.064 C64.746,533.244 63.832,534.331 63.122,535.291 C61.286,537.773 58.573,539.427 55.893,540.839 C57.419,546.878 58.945,552.916 60.471,558.954 C62.184,554.35 62.576,549.981 66.037,546.183 C68.798,543.151 66.291,527.86 61.919,526.963 C58.043,526.168 54.568,524.107 50.686,523.309 C51.844,529.874 53.002,536.439 54.159,543.005 C59.155,539.374 63.566,537.396 69.798,537.157 C68.425,530.751 67.053,524.344 65.68,517.938 C60.769,522.17 53.466,523.057 47.33,524.276 C48.488,530.841 49.646,537.407 50.803,543.972 C54.672,542.586 61.277,539.945 65.093,542.807 C65.489,543.168 65.478,543.152 65.06,542.758 C62.65,539.661 62.329,535 62.612,531.104 C62.741,529.332 62.425,531.577 62.236,532.111 C61.964,532.88 60.446,535.105 59.443,536.262 C57.116,538.942 53.81,540.793 50.194,540.609 C45.339,540.362 43.448,535.104 42.724,532.076 L42.358,544.994 C49.157,544.456 56.035,542.711 61.737,538.848 C66.414,535.679 59.571,518.266 58.264,519.152 C52.562,523.015 45.684,524.76 38.885,525.298 C35.708,525.549 38.182,536.804 38.519,538.216 C40.281,545.591 43.475,557.92 52.192,560.043 C57.528,561.343 62.57,557.417 65.538,553.328 C70.908,545.93 69.26,535.205 65.929,527.362 C62.615,519.56 53.569,522.041 47.33,524.276 C43.267,525.732 47.165,544.695 50.803,543.972 C57.726,542.597 64.936,541.427 70.443,536.681 C73.171,534.33 70.418,517.304 66.325,517.461 C60.093,517.7 55.682,519.677 50.686,523.309 C47.06,525.944 49.568,542.061 54.159,543.005 C58.021,543.799 61.504,545.861 65.392,546.659 C64.019,540.253 62.647,533.846 61.274,527.44 C57.299,531.803 56.76,537.122 54.788,542.421 C53.988,544.569 56.176,562.217 59.366,560.536 C65.229,557.446 70.143,553.06 71.267,546.241 C72.722,537.41 70.327,527.885 65.843,520.26 C63.567,516.39 62.807,523.263 62.828,524.434 C62.907,528.956 63.846,533.811 66.157,537.74" id="Fill-49" fill="#0E0E0E" sketch:type="MSShapeGroup"></path>
                <path d="M92.263,553.152 C86.018,553.563 79.756,553.305 73.515,553.81 C74.673,560.375 75.831,566.941 76.988,573.506 C85.203,571.463 93.526,570.183 101.964,569.538 C100.592,563.132 99.219,556.725 97.847,550.319 C95.763,551.891 93.622,553.34 91.416,554.732 C87.672,557.094 90.425,573.669 94.889,574.428 C100.618,575.402 103.966,579.804 108.701,582.685 C107.8,576.195 106.899,569.706 105.997,563.216 C82.137,577.24 92.039,606.05 92.828,628.434 C92.98,632.752 93.619,638.081 96.157,641.74 C98.641,645.32 99.223,639.013 99.172,637.566 C98.506,618.631 89.201,594.826 109.47,582.912 C113.448,580.574 110.225,565.547 106.766,563.443 C101.425,560.194 97.886,555.832 91.416,554.732 C92.574,561.297 93.732,567.863 94.889,574.428 C97.547,572.75 100.101,570.955 102.609,569.062 C105.455,566.915 102.436,549.541 98.491,549.842 C90.053,550.487 81.73,551.766 73.515,553.81 C69.631,554.776 72.926,573.835 76.988,573.506 C83.229,573.001 89.491,573.259 95.737,572.848 C99.126,572.625 96.732,552.858 92.263,553.152" id="Fill-50" fill="#0E0E0E" sketch:type="MSShapeGroup"></path>
                <path d="M289.032,473.379 C287.117,471.586 285.303,469.767 283.658,467.718 C281.011,463.569 281.157,466.521 284.097,476.573 C284.592,475.855 285.204,475.257 285.934,474.777 C288.702,472.528 285.815,455.263 281.816,455.558 C269.753,456.447 257.561,453.078 245.828,457.13 C244.641,457.54 244.583,459.395 244.456,460.346 C242.499,474.942 248.671,487.608 258.996,497.314 C262.506,500.614 266.999,503.876 268.964,508.413 C272.003,515.431 285.54,515.696 291.737,514.848 C295.467,514.338 292.375,494.59 288.263,495.152 C281.86,496.028 275.81,495.273 270.02,492.309 C269.988,493.261 269.806,493.204 269.475,492.139 C268.933,491.077 268.304,490.054 267.651,489.059 C266.497,487.298 264.985,485.766 263.55,484.239 C260.725,481.234 257.528,478.585 254.585,475.697 C253.267,474.403 252.09,473.012 250.977,471.541 C250.445,470.837 249.975,470.097 249.578,469.313 C250.551,471.236 250.154,477.476 250.672,473.61 C250.215,474.682 249.758,475.754 249.301,476.826 C261.034,472.774 273.226,476.143 285.289,475.254 C283.917,468.847 282.544,462.441 281.171,456.034 C275.962,460.267 277.607,468.893 279.05,474.576 C280.952,482.065 285.44,487.448 290.968,492.621 C293.297,494.801 293.066,485.57 293.026,485.166 C292.651,481.445 291.938,476.098 289.032,473.379" id="Fill-51" fill="#0E0E0E" sketch:type="MSShapeGroup"></path>
                <path d="M385.159,418.733 C381.106,435.136 363.928,435.918 349.846,435.607 C345.77,435.517 350.417,452.406 351.74,454.195 C358.863,463.828 365.535,475.228 376.252,481.292 C381.656,484.35 387.995,485.711 394.06,486.68 C401.008,487.79 408.482,488.563 415.305,486.406 C428.07,482.372 424.608,465.167 420.722,455.858 C416.102,444.792 405.332,438.348 394.264,435.152 C392.039,434.51 393.237,444.877 393.341,445.469 C393.804,448.094 394.628,453.951 397.736,454.848 C405.636,457.129 415.557,462.164 419.131,469.763 C418.023,467.407 417.706,464.408 417.84,461.789 C417.881,460.985 417.981,461.514 417.766,462.001 C417.162,463.374 416.028,464.538 414.791,465.347 C410.81,467.95 405.404,468.099 400.83,468.023 C390.463,467.85 379.011,465.764 370.468,459.58 C362.506,453.818 357.17,444.484 351.426,436.715 C352.057,442.911 352.688,449.107 353.319,455.303 C369.575,455.662 386.329,453.53 390.841,435.267 C391.906,430.96 390.83,425.723 389.42,421.625 C388.973,420.327 386.215,414.459 385.159,418.733" id="Fill-52" fill="#0E0E0E" sketch:type="MSShapeGroup"></path>
                <path d="M538.263,445.152 C521.135,441.774 503.695,440.767 486.355,439.019 C485.707,439.327 485.339,439.855 485.25,440.601 C482.077,451.893 479.979,462.892 472.568,472.352 C470.791,474.619 471.853,479.712 472.29,482.192 C472.66,484.288 473.505,490.289 475.917,491.344 C484.776,495.219 493.475,499.419 502.527,502.845 C510.695,505.935 521.096,509.945 529.901,507.504 C530.549,507.196 530.917,506.669 531.006,505.923 C534.432,490.14 528.763,474.293 523.419,459.625 C522.939,458.305 520.278,452.48 519.159,456.733 C518.051,460.94 519.128,466.387 520.581,470.375 C522.678,476.134 526.686,483.112 525.323,489.389 C525.692,488.862 526.06,488.335 526.428,487.808 C518.01,490.141 508.411,486.486 500.592,483.603 C491.516,480.256 482.835,475.975 473.982,472.102 C475.098,478.433 476.214,484.764 477.331,491.095 C485.205,481.044 487.56,469.138 490.933,457.134 C490.565,457.662 490.196,458.189 489.828,458.716 C507.168,460.464 524.608,461.471 541.737,464.848 C543.596,465.215 543.651,446.214 538.263,445.152" id="Fill-53" fill="#0E0E0E" sketch:type="MSShapeGroup"></path>
                <path d="M610.263,449.152 C599.048,447.129 588.032,444.15 576.791,442.243 C566.293,440.462 554.417,439.009 544.292,443.169 C539.873,444.985 544.114,460.435 546.996,462.638 C563.758,475.445 585.372,474.17 605.156,477.509 C614.139,479.024 623.386,481.818 628.913,489.481 C633.854,496.33 637.408,502.644 646.114,504.927 C647.162,505.202 647.457,501.955 647.486,501.711 C648.929,489.614 645.494,476.285 637.032,467.379 C634.86,465.093 634.942,474.509 634.974,474.834 C635.369,478.747 636.148,483.654 638.968,486.621 C639.792,487.477 640.532,488.4 641.187,489.391 C643.811,493.033 641.828,483.771 641.27,488.447 L642.641,485.231 C634.349,483.057 631.519,475.386 626.547,469.33 C620.79,462.317 611.634,459.768 603.065,458.065 C583.299,454.138 561.963,456.31 545.061,443.396 C545.963,449.886 546.864,456.375 547.765,462.865 C557.943,458.684 569.713,460.238 580.264,461.939 C591.52,463.754 602.522,466.825 613.737,468.848 C615.699,469.202 615.616,450.117 610.263,449.152" id="Fill-54" fill="#0E0E0E" sketch:type="MSShapeGroup"></path>
                <path d="M440.263,383.152 C431.795,384.597 424.59,389.059 419.853,396.269 C416.94,400.703 419.804,411.718 423.202,415.262 C430.182,422.542 440.409,423.705 449.737,420.848 C454.078,419.518 449.439,400.179 446.263,401.152 C437.306,403.896 427.988,403.031 421.266,396.02 C422.383,402.351 423.499,408.682 424.615,415.013 C429.131,408.14 435.685,404.222 443.737,402.848 C447.613,402.187 444.195,382.481 440.263,383.152" id="Fill-55" fill="#0E0E0E" sketch:type="MSShapeGroup"></path>
                <path d="M702.263,399.152 C690.821,398.818 681.594,406.376 679.978,417.745 C678.082,431.084 683.001,447.379 696.665,452.056 C697.219,452.442 697.69,452.358 698.079,451.806 C703.535,445.616 704.061,437.018 703.026,429.166 C702.588,425.85 702.111,419.577 699.032,417.379 C696.425,415.517 696.886,424.165 696.974,424.834 C697.381,427.916 695.258,430.86 693.316,433.063 C693.788,432.98 694.259,432.897 694.73,432.814 C691.385,431.669 688.024,430.067 685.738,427.277 C683.589,424.654 686.05,431.068 685.996,432.737 C686.041,431.339 686.55,429.979 687.152,428.735 C690.581,421.644 698.242,418.629 705.737,418.848 C708.606,418.932 707.148,399.294 702.263,399.152" id="Fill-56" fill="#0E0E0E" sketch:type="MSShapeGroup"></path>
                <path d="M748.264,439.152 C739.062,438.692 730.012,442.028 723.925,449.077 C716.849,457.272 718.855,471.37 722.93,480.409 C726.607,488.566 735.196,496.504 744.631,496.449 C753.853,496.395 756.453,484.677 757.108,477.632 C757.531,473.083 756.59,467.839 754.652,463.705 C753.112,460.418 751.226,460.774 750.892,464.368 C750.406,469.591 748.488,474.875 743.029,476.485 C737.269,478.183 731.309,473.653 727.323,470.104 C726.365,469.251 725.364,468.073 724.737,466.934 C724.887,474.005 725.296,475.904 725.964,472.632 C726.135,471.94 726.403,471.287 726.766,470.674 C727.999,468.199 730.044,466.19 732.134,464.44 C737.418,460.015 745.045,458.513 751.737,458.848 C754.485,458.986 753.228,439.4 748.264,439.152" id="Fill-57" fill="#0E0E0E" sketch:type="MSShapeGroup"></path>
                <path d="M268.892,396.368 C268.523,403.32 264.806,409.664 261.693,415.725 C260.228,418.576 260.887,422.569 261.415,425.565 C261.799,427.742 262.616,433.565 265.042,434.717 C274.011,438.979 283.853,441.292 292.371,434.952 C293.827,433.869 293.154,429.123 293.016,427.747 C292.687,424.489 291.934,421.295 290.642,418.285 C288.914,414.257 288.017,410.139 285.843,406.26 C283.636,402.322 282.808,409.326 282.828,410.434 C282.909,415.018 283.91,419.73 286.157,423.74 C287.347,425.862 288.17,430.154 289.338,432.876 C288.761,427.32 288.185,421.765 287.609,416.209 C280.262,421.676 270.631,419.051 263.107,415.475 C264.223,421.806 265.339,428.137 266.456,434.468 C270.493,426.608 274.63,418.627 275.108,409.632 C275.355,404.988 274.64,399.946 272.652,395.705 C271.166,392.532 269.089,392.668 268.892,396.368" id="Fill-58" fill="#0E0E0E" sketch:type="MSShapeGroup"></path>
                <path d="M322.264,471.152 C305.354,473.712 309.652,494.719 314.723,506.036 C319.226,516.086 330.968,525.328 342.618,521.715 C347.246,520.281 347.695,514.686 347.573,510.642 C347.355,503.432 345.34,496.182 341.907,489.847 C336.8,480.424 328.736,470.36 319.032,465.379 C316.183,463.917 316.875,471.844 316.974,472.834 C317.256,475.628 317.938,483.066 320.968,484.621 C327.045,487.74 332.044,492.943 336.253,498.226 C338.345,500.852 340.282,503.65 341.753,506.672 C342.864,508.956 341.348,505.359 342.152,507.601 C341.389,505.473 341.217,502.652 341.29,500.58 C341.326,499.584 341.216,500.887 340.19,501.544 C334.029,505.491 323.874,500.655 319.389,496.249 C318.266,495.145 317.205,493.682 316.452,492.301 C315.405,490.381 316.461,492.773 315.758,490.768 C316.317,492.362 316.87,495.414 316.592,496.887 C317.373,492.749 322.202,491.383 325.737,490.848 C329.532,490.274 326.298,470.541 322.264,471.152" id="Fill-59" fill="#0E0E0E" sketch:type="MSShapeGroup"></path>
                <path d="M637.032,381.379 C621.987,374.625 600.951,371.886 586.811,382.284 C569.748,394.831 579.512,422.387 589.332,436.397 C600.258,451.984 617.638,459.205 636.298,454.836 C650.316,451.553 665.029,441.006 667.54,426.012 C670.043,411.067 664.673,395.094 653.032,385.379 C650.566,383.321 650.924,392.335 650.974,392.834 C651.33,396.364 652.001,402.145 654.968,404.621 C657.605,406.822 660.234,409.297 661.879,412.366 C663.076,414.601 661.636,411.325 662.451,413.629 C662.14,412.748 661.926,411.792 661.83,410.864 C661.591,408.561 661.666,410.627 661.383,411.791 C659.818,418.242 654.607,423.811 649.385,427.614 C636.576,436.942 618.427,439.514 604.067,432.434 C595.58,428.249 588.982,420.421 584.829,412.056 C584.19,410.769 583.802,408.408 584.12,411.156 C584.324,412.919 584.511,410.18 584.72,409.484 C585.608,406.517 587.97,403.991 590.266,402.029 C602.888,391.24 625.203,394.442 638.968,400.621 C641.876,401.927 641.139,394.289 641.026,393.166 C640.761,390.537 640.044,382.731 637.032,381.379" id="Fill-60" fill="#0E0E0E" sketch:type="MSShapeGroup"></path>
                <path d="M506.263,381.152 C493.016,380.395 492.704,392.746 494.321,402.954 C495.975,413.399 501.334,425.012 510.511,430.9 C514.379,433.382 519.018,433.571 523.192,431.757 C528.017,429.659 529.708,424.709 530.413,419.912 C532.288,407.14 526.464,389.371 513.032,385.379 C509.422,384.306 510.656,403.34 514.968,404.621 C518.318,405.616 521.495,407.258 523.775,409.973 C525.077,411.522 525.304,413.258 524.476,409.368 C523.872,406.533 524.63,405.995 523.77,407.899 C521.174,413.644 513.538,414.538 508.576,411.658 C506.237,410.301 504.303,408.324 502.646,406.217 C501.891,405.257 501.13,404.208 500.536,403.14 C499.914,402.022 499.033,399.562 499.426,400.98 C499.593,401.688 499.717,402.404 499.797,403.127 C499.811,403.89 499.826,404.652 499.84,405.414 C499.905,404.617 499.921,404.493 499.888,405.041 C500.085,404.169 500.656,403.495 501.236,402.836 C503.179,400.627 507.1,400.698 509.737,400.848 C512.444,401.003 511.254,381.437 506.263,381.152" id="Fill-61" fill="#0E0E0E" sketch:type="MSShapeGroup"></path>
                <path d="M265.737,394.848 C303.352,384.943 330.207,425.118 367.449,419.748 C365.923,413.71 364.397,407.672 362.871,401.633 C359.08,423.221 329.622,428.547 311.548,427.473 C284.492,425.864 263.924,400.067 252.652,377.705 C251.056,374.538 249.222,374.671 248.892,378.368 C248.492,382.837 249.316,388.265 251.348,392.295 C263.641,416.683 284.664,444.348 314.005,447.091 C334.252,448.984 364.438,441.604 368.554,418.167 C369.217,414.394 368.753,410.525 367.815,406.83 C367.496,405.574 366.197,399.732 363.976,400.052 C326.83,405.408 300.059,365.199 262.264,375.152 C258.048,376.262 262.319,395.748 265.737,394.848" id="Fill-62" fill="#0E0E0E" sketch:type="MSShapeGroup"></path>
            </g>
        </g>
    </g>
</svg>