<?xml version="1.0" encoding="UTF-8" standalone="no"?>
<svg width="1000px" height="1000px" viewBox="0 0 1000 1000" version="1.1" xmlns="http://www.w3.org/2000/svg" xmlns:xlink="http://www.w3.org/1999/xlink" xmlns:sketch="http://www.bohemiancoding.com/sketch/ns">
    <!-- Generator: Sketch Beta 3.3.2 (12041) - http://www.bohemiancoding.com/sketch -->
    <title>2</title>
    <desc>Created with Sketch Beta.</desc>
    <defs></defs>
    <g id="Page-1" stroke="none" stroke-width="1" fill="none" fill-rule="evenodd" sketch:type="MSPage">
        <g id="2" sketch:type="MSArtboardGroup">
            <g id="Imported-Layers" sketch:type="MSLayerGroup" transform="translate(72.000000, 113.000000)">
                <path d="M18,628 L818,628 L818,746 L18,746 L18,628 Z" id="Fill-1" fill="#FF4621" sketch:type="MSShapeGroup"></path>
                <path d="M684,444 L819,444 L819,733 L684,733 L684,444 Z" id="Fill-2" fill="#FAE164" sketch:type="MSShapeGroup"></path>
                <path d="M560,349 L623,349 L623,712 L560,712 L560,349 Z" id="Fill-3" fill="#0066FF" sketch:type="MSShapeGroup"></path>
                <path d="M281,419 L517,419 L517,693 L281,693 L281,419 Z" id="Fill-4" fill="#0066FF" sketch:type="MSShapeGroup"></path>
                <path d="M225,400 L300,400 L300,653 L225,653 L225,400 Z" id="Fill-5" fill="#64E178" sketch:type="MSShapeGroup"></path>
                <path d="M84,407 L152,407 L152,670 L84,670 L84,407 Z" id="Fill-6" fill="#64E178" sketch:type="MSShapeGroup"></path>
                <path d="M31,497 L243,497 L243,675 L31,675 L31,497 Z" id="Fill-7" fill="#FAE164" sketch:type="MSShapeGroup"></path>
                <path d="M62.108,672.632 C62.897,656.745 67.898,641.544 70.83,625.997 C73.804,610.227 74.312,594.008 74.485,577.999 C74.836,545.431 74.256,512.741 72.779,480.207 C72.055,464.273 71.887,448.181 70.492,432.293 C70.183,428.779 68.732,424.65 70.222,421.359 C72.62,416.066 79.415,414.429 84.537,413.36 C90.521,412.111 96.681,411.758 102.734,410.977 C109.898,410.054 116.31,409.92 123.316,412.063 C135.668,415.842 149.101,424.92 156.282,435.738 C158.744,439.447 159.554,443.657 160.041,447.992 C160.846,455.164 161.225,462.415 161.635,469.617 C162.576,486.163 162.952,502.736 163.53,519.296 C164.111,535.94 164.901,552.597 166.539,569.175 C168.077,584.747 170.678,600.222 171.12,615.887 C171.415,626.356 168.729,636.447 168.104,646.858 C167.55,656.09 168.236,674.796 179.138,678.407 C188.221,681.416 195.826,667.967 198.117,661.194 C202.033,649.612 199.015,635.543 197.638,623.76 C195.966,609.448 196.496,594.908 194.542,580.542 C193.027,569.4 186.882,556.211 194.941,546.457 C204.078,535.399 220.733,534.656 231.795,542.599 C240.05,548.527 239.156,557.729 239.017,566.836 C238.977,569.454 238.906,572.072 238.865,574.69 C238.845,575.927 238.846,577.165 238.851,578.402 C238.857,579.924 238.957,576.297 238.841,578.231 C238.617,581.979 238.193,585.718 237.874,589.458 C237.051,599.085 236.326,608.98 237.59,618.599 C238.303,624.033 239.381,629.557 242.112,634.372 C243.912,637.546 247.043,638.34 250.48,638.534 C258.295,638.976 268.836,636.284 274.817,631.045 C278.273,628.017 279.135,622.118 279.622,617.862 C280.405,611.028 279.393,603.93 278.327,597.19 C277.557,592.314 276.349,587.52 275.579,582.645 C275.327,581.054 275.169,579.691 275.145,578.838 C275.176,579.924 275.589,577.998 276.245,577.184 C278.487,574.402 283.242,573.347 286.439,572.27 C293.595,569.859 300.906,568.151 308.421,567.392 C323.409,565.879 337.459,570.816 352.255,571.371 C374.211,572.195 380.979,551.696 383.618,533.683 C386.431,514.476 384.049,495.189 388.043,476.254 C389.556,469.077 390.822,462.125 390.702,454.764 C390.599,448.414 390.403,442.877 394.957,437.923 C398.176,434.422 403.753,433.229 408.132,432.003 C415.225,430.017 422.505,428.798 429.807,427.901 C444.468,426.1 459.321,426.083 474.067,426.286 C486.673,426.459 499.525,426.131 512.081,427.373 C521.4,428.294 531.075,431.607 532.742,441.347 C534.281,450.341 533.085,460.31 532.549,469.487 C530.621,502.477 526.644,535.31 524.731,568.301 C524.291,575.881 524.128,583.473 523.615,591.05 C523.15,597.935 521.489,604.373 520.408,611.151 C519.931,614.139 519.712,617.126 519.849,620.153 C519.944,622.26 520.169,624.341 520.524,626.421 C521.256,630.715 520.441,625.194 520.773,628.026 C521.193,631.614 521.782,640.416 525.772,642.2 C532.197,645.072 540.819,644.876 547.661,644.961 C555.048,645.054 564.211,645.844 570.335,641.03 C577.16,635.667 577.939,623.821 578.356,615.947 C578.843,606.743 577.685,597.524 578.148,588.35 C578.693,577.545 589.272,576.386 597.88,577.57 C607.529,578.897 618.215,584.979 625.202,591.613 C627.643,593.931 627.874,595.874 627.93,598.656 C628.049,604.534 627.005,610.501 625.954,616.263 C623.963,627.184 620.762,638.072 620.697,649.242 C620.665,654.86 621.657,662.484 625.061,667.182 C627.129,670.036 629.898,670.55 633.269,670.489 C637.75,670.407 642.11,669.615 646.605,669.986 C652.708,670.491 658.712,672.081 664.758,673.006 C672.472,674.186 679.92,673.941 683.691,666.267 C687.333,658.856 687.497,649.871 687.542,641.795 C687.596,632.17 686.587,622.515 685.452,612.969 C684.986,609.044 684.467,605.125 683.974,601.204 C683.768,599.569 683.573,597.934 683.39,596.297 C683.296,595.448 682.947,590.487 683.102,593.56 C682.32,578.039 682.997,562.331 682.982,546.791 C682.966,530.201 682.812,513.612 682.197,497.032 C681.841,487.403 680.18,477.307 680.104,468.406 C680.041,461.097 683.503,454.51 690.074,450.587 C701.5,443.764 717.595,443.486 730.475,443.076 C746.513,442.566 762.568,444.271 778.415,446.579 C785.43,447.6 792.434,449.226 799.483,449.934 C805.116,450.5 810.981,449.589 816.487,451.232 C817.975,451.676 820.025,452.656 820.818,454.083 C821.898,456.024 820.974,454.25 820.804,453.446 C821.441,456.46 820.781,452.458 821.094,455.638 C821.529,460.055 821.153,464.609 820.921,469.032 C819.217,501.516 816.034,533.95 814.725,566.447 C813.365,600.187 815.735,633.881 817.983,667.528 C818.146,669.967 819.203,679.218 822.745,679.542 C826.622,679.897 830.043,678.922 833.737,677.848 C838.035,676.598 833.526,657.203 830.264,658.152 C826.57,659.226 823.149,660.201 819.272,659.846 C820.859,663.851 822.447,667.855 824.034,671.86 C821.898,639.881 819.678,607.831 821.108,575.767 C822.499,544.585 825.527,513.474 827.137,482.296 C827.738,470.649 827.894,459.072 825.051,447.668 C823.81,442.69 821.88,437.902 818.326,434.153 C814.915,430.553 808.142,430.6 803.623,430.472 C789.493,430.074 775.611,426.761 761.571,425.12 C745.644,423.259 729.567,422.675 713.591,424.241 C702.393,425.338 689.697,426.955 681.117,434.967 C674.834,440.834 673.966,450.208 673.766,458.266 C673.531,467.76 675.302,477.199 675.799,486.656 C676.655,502.963 676.6,519.347 676.634,535.671 C676.683,559.105 676.104,582.244 679.018,605.507 C680.13,614.39 681.088,623.022 681.194,631.594 C681.271,637.857 681.058,645.223 677.158,650.453 C671.929,657.466 658.156,652.82 651.301,651.54 C646.159,650.58 641.193,649.927 635.965,650.337 C632.743,650.589 628.115,651.76 625.139,650.065 C621.583,648.039 626.879,661.535 627.042,658.125 C627.102,656.848 627.283,655.574 627.451,654.308 C627.743,652.097 628.203,649.908 628.634,647.722 C629.804,641.793 631.103,635.894 632.148,629.941 C634.421,617.003 635.237,603.927 632.306,591.015 C629.698,579.529 624.405,571.914 614.409,565.853 C605.836,560.655 595.896,556.653 585.708,557.535 C575.656,558.404 572.311,567.573 571.865,576.403 C571.404,585.561 572.561,594.724 572.076,603.886 C571.698,611.031 570.321,621.562 562.208,624.008 C554.259,626.404 544.376,625.474 536.217,624.99 C532.706,624.782 529.46,624.204 526.062,623.364 C519.971,621.858 525.764,623.42 526.824,632.358 C526.65,630.893 526.457,629.432 526.241,627.972 C525.867,625.45 525.903,629.809 526.392,625.871 C527.135,619.887 528.94,614.137 529.525,608.095 C530.318,599.91 530.456,591.668 530.848,583.459 C532.421,550.485 536.566,517.672 538.645,484.729 C539.354,473.485 540.046,462.218 539.275,450.959 C538.491,439.516 536.546,426.392 529.567,416.909 C523.234,408.303 510.571,407.51 500.827,407.178 C487.22,406.714 473.561,406.514 459.946,406.51 C445.282,406.506 430.579,407.186 416.115,409.719 C406.427,411.415 393.065,413.336 387.635,422.679 C384.53,428.02 384.208,434.462 384.212,440.469 C384.214,443.743 384.521,446.976 384.186,450.241 C383.732,454.662 382.482,459.062 381.594,463.41 C379.623,473.073 379.429,482.779 379.201,492.6 C378.819,509.112 379.614,529.872 368.876,543.602 C361.527,553 348.734,552.268 338.11,550.497 C323.43,548.05 309.668,546.206 294.898,549.243 C288.962,550.464 283.033,552.307 277.422,554.604 C274.497,555.801 271.485,557.566 270.197,560.58 C266.458,569.328 269.705,581.365 271.512,590.255 C273.122,598.178 276.29,609.231 267.422,614.005 C261.497,617.195 248.722,621.611 242.367,617.697 C242.018,617.482 241.621,615.838 242.888,619.112 C243.252,620.053 243.396,621.067 243.526,622.06 C243.271,620.115 243.332,619.963 243.307,617.488 C243.261,612.92 243.634,608.348 244,603.799 C244.643,595.809 245.113,587.968 245.281,579.951 C245.748,557.641 245.059,525.75 219.109,518.19 C207.446,514.792 192.65,521.639 187.142,532.288 C181.413,543.363 184.935,557.981 187.261,569.483 C190.247,584.249 190.131,599.169 191.073,614.131 C191.717,624.359 196.075,636.946 191.623,646.764 C189.637,651.145 186.294,655.515 182.113,657.962 C180.44,658.942 178.174,659.487 176.287,658.862 C175.263,658.523 174.341,657.699 173.666,656.892 C170.536,653.148 174.361,664.478 174.319,660.378 C174.216,650.461 177.315,640.683 177.498,630.735 C177.792,614.752 175.525,598.8 173.641,582.969 C171.719,566.826 170.738,550.628 170.095,534.389 C169.44,517.83 169.075,501.261 168.289,484.706 C167.601,470.226 167.245,455.307 164.417,441.049 C161.71,427.404 156.235,416.22 145.678,407.047 C135.637,398.322 123.14,391.529 109.707,390.473 C103.814,390.01 97.694,391.499 91.847,392.145 C85.534,392.841 79.051,393.515 73.155,396.016 C62.184,400.67 62.775,412.672 63.866,422.738 C65.879,441.315 65.978,460.25 66.781,478.92 C67.654,499.226 67.664,519.508 67.927,539.825 C68.186,559.842 68.557,579.844 66.485,599.788 C64.394,619.912 56.9,639.078 55.892,659.368 C55.661,664.019 56.356,669.045 58.348,673.295 C59.83,676.458 61.924,676.341 62.108,672.632" id="Fill-8" fill="#000000" sketch:type="MSShapeGroup"></path>
                <path d="M87.172,725.566 C86.413,712.762 91.104,700.438 92.291,687.795 C92.726,683.16 93.048,678.519 93.672,673.905 C94.18,670.15 95.68,668.272 99.178,666.515 C107.599,662.287 118.787,663.114 127.901,663.393 C140.28,663.773 152.627,663.846 165.016,663.846 C180.908,663.846 196.825,664.112 212.714,663.835 C217.217,663.757 221.734,663.022 226.22,662.654 C230.458,662.305 236.198,661.442 240.133,663.478 C242.601,664.756 241.104,667.598 240.243,660.464 C240.319,661.098 240.28,661.781 240.258,662.426 C240.184,664.565 240.015,666.706 239.87,668.841 C239.592,672.9 238.718,676.943 238.099,680.958 C236.378,692.118 236,703.435 239.354,714.349 C241.176,720.279 245.103,727.471 252.31,725.143 C256.933,723.649 259.822,722.123 264.876,722.802 C270.234,723.521 275.308,725.604 280.775,724.237 C288.068,722.412 284.189,708.421 282.987,703.805 C282.362,701.404 282.468,700.135 282.661,703.928 C282.539,704.909 282.609,704.775 282.871,703.525 C283.13,702.521 283.797,701.647 284.382,700.818 C286.666,697.581 290.882,696.46 294.569,695.845 C302.068,694.592 309.959,696.095 317.391,697.149 C324.139,698.107 330.917,697.404 337.705,697.282 C341.112,697.22 344.558,697.237 347.927,697.799 C352.225,698.516 349.217,702.414 348.555,691.254 C348.677,693.316 347.935,695.605 347.51,697.6 C346.53,702.199 345.888,706.582 346.084,711.309 C346.36,717.954 348.474,724.258 348.974,730.834 C349.221,734.075 349.999,740.501 352.968,742.621 C355.601,744.502 355.074,735.799 355.026,735.166 C354.737,731.368 354.118,727.627 353.336,723.901 C352.908,721.866 352.105,719.703 352.471,717.61 C353.484,711.814 354.86,706.317 354.9,700.385 C354.943,694.029 353.489,686.216 349.63,680.999 C347.363,677.935 343.343,677.824 339.852,677.641 C331.531,677.204 323.145,678.678 314.866,677.584 C305.681,676.371 295.946,674.322 286.86,677.141 C275.583,680.64 275.644,693.16 277.138,702.799 C277.511,705.207 278.153,707.592 278.782,709.946 C278.854,710.221 278.926,710.497 278.998,710.773 C278.464,708.417 278.388,706.015 278.768,703.568 C278.47,704.166 277.874,704.32 277.302,704.54 C271.373,706.827 264.011,703.116 258.019,702.788 C253.849,702.559 249.033,707.286 245.139,706.013 C244.222,705.714 242.712,704.814 242.327,704.094 C243.516,706.314 242.934,709.439 243.078,705.498 C243.387,697.048 245.689,688.831 246.193,680.411 C246.852,669.399 247.497,655.791 240.554,646.439 C235.728,639.939 223.138,642.872 216.427,643.542 C204.079,644.775 191.547,644.151 179.151,644.151 C164.576,644.15 149.965,644.452 135.395,644.112 C126.373,643.901 117.387,643.206 108.368,643.927 C101.646,644.464 91.956,646.04 89.068,653.165 C86.112,660.456 86.659,669.493 85.802,677.219 C84.334,690.453 80.026,702.924 80.828,716.434 C81.086,720.796 81.581,726.026 84.157,729.74 C86.625,733.298 87.26,727.041 87.172,725.566" id="Fill-9" fill="#000000" sketch:type="MSShapeGroup"></path>
                <path d="M398.172,744.566 C398.655,728.335 398.234,712.084 399.351,695.875 C400.461,679.76 402.762,663.853 402.224,647.649 C401.899,637.848 399.48,627.892 400.122,618.209 C400.819,607.681 408.708,601.454 417.991,597.976 C431.548,592.897 446.836,594.853 460.977,594.848 C464.492,594.847 468.786,594.354 472.006,596.054 C472.352,596.237 472.776,596.584 472.99,596.866 C472.136,595.74 471.716,593.78 471.575,592.437 C471.933,595.848 471.677,599.441 471.551,602.861 C470.983,618.303 469.13,633.832 467.451,649.188 C466.195,660.67 463.862,672.549 467.143,683.949 C468.353,688.154 469.683,692.727 473.566,695.226 C476.691,697.237 481.109,697.384 484.685,697.457 C494.301,697.654 503.835,695.678 513.453,695.724 C517.328,695.742 521.039,696.33 524.373,698.42 C526.476,699.738 521.707,683.248 521.865,688.402 C521.906,689.741 522.008,691.077 522.094,692.413 C522.354,696.457 523.353,700.548 524.581,704.399 C525.842,708.357 527.263,712.593 530.433,715.447 C533.051,717.805 538.39,717.448 541.598,717.737 C546.566,718.185 551.698,719.673 556.567,717.998 C561.735,716.222 564.394,710.954 565.692,706.069 C566.851,701.705 566.775,696.499 569.811,692.913 C573.026,689.115 581.96,692.419 585.744,693.395 C594.2,695.575 610.97,693.667 615.473,703.136 C614.724,701.562 615.499,704.143 615.551,704.612 C615.804,706.901 615.862,709.199 615.92,711.5 C616.06,717.077 615.906,722.657 615.948,728.234 C616.02,737.655 617.359,747.031 617.828,756.434 C618.044,760.779 618.596,766.047 621.157,769.74 C623.631,773.307 624.245,767.03 624.172,765.566 C623.479,751.652 622.264,740.656 622.314,727.399 C622.36,715.345 621.988,702.834 617.912,691.36 C616.188,686.508 613.476,682.242 609.034,679.494 C604.329,676.583 598.075,676.074 592.73,675.413 C587.394,674.753 582.357,673.62 577.128,672.431 C572.215,671.313 566.917,671.068 563.886,675.736 C558.475,684.07 562.509,698.51 548.646,699.119 C543.665,699.337 538.318,698.089 533.35,697.611 C530.532,697.34 528.341,696.811 527.744,694.665 C527.51,693.827 528.261,699.235 528.188,696.847 C528.152,695.651 528.081,694.453 527.941,693.264 C527.523,689.713 526.787,686.07 525.259,682.809 C523.421,678.886 519.588,677.413 515.572,676.529 C506.769,674.593 496.789,676.909 487.937,677.533 C483.755,677.827 479.524,677.949 475.372,677.283 C473.792,677.029 472.38,676.466 471.04,675.604 C469.228,674.438 470.414,673.372 471.7,679.445 C472.02,680.957 471.851,678.78 471.875,678.269 C472.453,666.023 474.459,653.611 475.723,641.418 C477.282,626.365 479.101,610.815 477.514,595.691 C476.579,586.787 474.512,576.296 464.231,575.295 C458.615,574.749 452.827,575.131 447.188,575.005 C439.603,574.836 432.041,574.8 424.51,575.837 C413.874,577.3 402.224,582.087 397.13,592.136 C392.557,601.157 393.452,612.312 394.321,622.041 C395.45,634.682 396.269,646.734 395.276,659.464 C394.317,671.764 392.85,683.965 392.464,696.309 C392.057,709.348 392.216,722.395 391.828,735.434 C391.703,739.611 392.728,745.239 395.157,748.74 C397.683,752.381 398.132,745.933 398.172,744.566" id="Fill-10" fill="#000000" sketch:type="MSShapeGroup"></path>
                <path d="M668.172,754.566 C668.123,749.092 667.185,743.775 666.003,738.45 C665.575,736.518 665.052,734.607 664.589,732.684 C664.994,734.365 664.002,736.186 665.502,733.984 C667.855,730.53 674.209,730.325 677.927,729.864 C682.217,729.333 686.55,729.178 690.858,728.843 C698.489,728.25 705.882,726.742 711.368,721.015 C718.722,713.337 719.42,699.657 720.185,689.729 C721.227,676.194 720.322,662.54 719.042,649.055 C717.792,635.893 712.743,623.871 710.146,611.038 C707.564,598.28 708.075,584.822 708.143,571.878 C708.18,564.867 707.948,557.955 707.082,550.989 C706.288,544.596 704.946,538.219 704.555,531.781 C704.076,533.541 703.597,535.302 703.119,537.063 C713.809,536.489 724.179,533.688 734.759,532.255 C739.926,531.556 745.051,531.522 750.236,531.981 C751.92,532.13 753.627,532.178 755.241,532.735 C759.734,534.286 756.969,537.548 756.171,529.345 C756.429,531.993 756,535.083 755.888,537.841 C755.688,542.76 756.082,547.648 756.392,552.557 C757.135,564.31 758.627,575.974 759.859,587.68 C764.746,634.119 763.046,680.961 769.515,727.281 C769.659,728.312 771.528,737.587 773.911,736.66 C775.833,735.912 777.8,735.235 779.805,736.093 C780.453,736.37 781.058,736.94 781.375,737.57 C780.725,736.281 780.593,733.818 780.852,736.639 C781.538,734.154 782.224,731.669 782.91,729.184 C782.332,728.656 781.756,728.128 781.18,727.6 C779.635,726.182 779.06,730.035 779.04,730.588 C778.54,744.498 781.585,759.614 787.348,772.295 C788.857,775.615 790.789,775.199 791.108,771.632 C791.519,767.039 790.556,761.894 788.652,757.705 C786.848,753.734 785.104,748.067 785.256,743.853 C784.542,744.849 783.829,745.845 783.115,746.841 C783.691,747.37 784.268,747.898 784.845,748.425 C787.208,750.586 786.941,741.383 786.903,740.97 C786.124,732.496 783.401,711.919 770.438,716.964 C771.903,720.09 773.368,723.216 774.833,726.343 C771.506,702.523 770.675,678.418 769.72,654.415 C768.708,628.993 767.215,603.716 764.369,578.43 C763.251,568.501 761.8,557.311 762.248,547.921 C762.716,538.118 763.094,526.868 758.048,518.063 C753.686,510.451 742.253,511.626 734.812,512.18 C722.969,513.061 711.53,516.729 699.646,517.367 C698.032,517.453 698.161,521.847 698.21,522.649 C698.991,535.485 701.881,548.032 701.808,560.918 C701.731,574.698 701.757,588.49 703.368,602.196 C704.919,615.401 709.548,627.489 712.297,640.382 C714.873,652.465 714.774,666.014 713.83,678.274 C713.083,687.963 711.774,700.089 702.534,705.525 C695.76,709.511 686.823,709.164 679.252,709.718 C671.699,710.271 661.015,710.536 658.912,719.492 C657.734,724.51 658.571,730.158 659.581,735.126 C660.066,737.513 660.634,739.874 661.228,742.236 C661.112,741.773 661.997,745.622 661.749,744.387 C662.531,748.281 661.792,741.494 661.828,745.434 C661.866,749.699 662.663,755.143 665.157,758.74 C667.658,762.345 668.185,755.982 668.172,754.566" id="Fill-11" fill="#000000" sketch:type="MSShapeGroup"></path>
                <path d="M228.108,509.632 C229.171,502.689 228.85,495.617 228.828,488.618 C228.808,481.911 229.097,475.427 234.724,471.06 C246.447,461.965 241.35,443.938 237.569,431.844 C236.57,428.651 235.364,425.521 234.238,422.371 C233.804,421.157 233.401,419.934 233.008,418.707 C232.556,417.293 233.066,419.027 232.937,419.788 C233.728,415.137 238.354,410.58 240.43,406.395 C247.338,392.463 248.191,376.454 251.616,361.514 C249.66,358.036 247.704,354.558 245.748,351.081 C246.355,360.362 244.201,369.898 244.163,379.218 C244.119,390.121 246.072,403.203 253.258,411.843 C259.207,418.997 268.586,419.036 275.196,424.813 C276.478,426.636 276.31,425.443 274.693,421.233 C274.738,421.614 274.473,423.268 274.463,423.37 C274.205,426.268 273.686,429.148 273.233,432.02 C272.322,437.788 271.756,443.54 272.197,449.381 C272.884,458.46 275.094,469.69 284.133,473.927 C291.395,477.331 299.849,477.086 306.768,481.404 C307.884,482.101 309.147,483.1 309.78,484.284 C310.907,486.394 309.741,482.687 310.042,485.483 C310.51,489.821 310.158,494.291 309.875,498.63 C309.247,508.238 307.911,517.794 307.828,527.434 C307.791,531.66 308.692,537.186 311.157,540.74 C313.669,544.361 314.16,537.96 314.172,536.566 C314.351,515.913 319.427,495.804 313.283,475.421 C310.682,466.794 305.932,461.471 297.261,458.91 C293.236,457.721 289.091,456.987 285.078,455.76 C283.472,455.268 281.942,454.606 280.462,453.817 C279.642,453.379 278.922,452.804 278.209,452.214 C276.426,450.739 277.495,448.482 278.349,455.047 C277.774,450.629 279.467,445.266 280.131,440.902 C280.966,435.415 281.254,429.876 280.6,424.353 C279.903,418.459 278.485,411.95 274.755,407.171 C272.29,404.012 268.63,402.594 265.006,401.222 C260.572,399.542 256.53,397.647 253.009,394.402 C252.42,393.779 251.888,393.109 251.413,392.395 C251.145,392.025 250.104,389.377 250.659,391.275 C250.406,390.409 250.509,388.199 250.514,386.95 C250.557,376.368 252.495,366.043 251.8,355.413 C251.593,352.251 250.774,348.826 249.426,345.952 C248.709,344.421 246.651,341.844 245.933,344.98 C242.46,360.131 241.716,376.472 234.25,390.402 C231.921,394.749 228.494,398.374 227.254,403.255 C225.414,410.498 227.264,418.986 229.147,426.011 C230.832,432.295 233.586,438.233 235.277,444.509 C236.356,448.513 230.661,451.651 228.194,453.756 C223.298,457.935 222.953,466.622 222.64,472.521 C222.217,480.466 223.1,488.477 221.892,496.368 C221.221,500.749 222.49,506.332 224.348,510.295 C225.971,513.758 227.585,513.052 228.108,509.632" id="Fill-12" fill="#000000" sketch:type="MSShapeGroup"></path>
                <path d="M549.841,569.267 C553.79,559.2 550.574,539.686 562.78,534.907 C564.756,534.134 566.479,532.673 568.595,532.454 C570.731,532.233 572.355,532.417 573.769,530.532 C577.225,525.922 574.938,516.648 573.842,511.719 C572.785,506.964 571.043,502.447 569.331,497.903 C569.238,497.648 569.146,497.392 569.054,497.137 C569.506,498.815 569.442,498.535 568.861,496.298 C568.384,494.42 567.951,492.531 567.518,490.642 C566.574,486.528 565.849,482.361 565.148,478.2 C562.588,463.012 561.682,447.578 561.309,432.199 C561.021,420.318 559.725,408.611 559.198,396.765 C558.773,387.214 561.255,377.328 570.169,372.29 C576.981,368.442 584.898,366.12 592.331,363.831 C600.76,361.236 609.543,358.835 618.378,358.241 C619.995,358.133 621.619,358.17 623.221,358.417 C623.689,358.489 623.931,358.595 624.349,358.785 C629.661,361.2 626.106,365.406 625.417,352.904 C625.579,355.846 624.898,359.117 624.685,362.052 C624.31,367.207 623.869,372.358 623.411,377.506 C621.748,396.225 619.671,414.905 618.091,433.632 C614.963,470.711 622.701,507.417 622.828,544.434 C622.842,548.687 623.672,554.157 626.157,557.74 C628.661,561.35 629.177,554.975 629.172,553.566 C629.063,521.702 623.264,490.147 623.706,458.273 C623.929,442.22 626.209,426.089 627.786,410.126 C629.261,395.199 630.865,380.219 631.687,365.239 C632.195,355.963 630.267,339.833 618.548,338.564 C610.689,337.713 601.976,340.467 594.495,342.5 C586.078,344.787 577.676,347.534 569.709,351.105 C561.54,354.768 556.442,361.296 554.226,369.953 C550.561,384.267 554.586,399.033 554.824,413.451 C555.189,435.481 556.312,457.356 559.83,479.137 C561.379,488.729 563.118,498.659 566.215,507.888 C567.096,510.514 568.199,513.065 569.094,515.689 C570.236,519.04 568.166,513.549 569.007,511.788 C568.316,513.235 565.395,512.729 564.103,512.863 C562.218,513.059 558.653,515.346 556.892,516.339 C553.394,518.31 551.147,522.537 549.789,526.146 C546.553,534.747 547.511,544.184 544.159,552.733 C542.654,556.57 544.319,562.708 545.581,566.375 C546.191,568.151 548.324,573.135 549.841,569.267" id="Fill-13" fill="#000000" sketch:type="MSShapeGroup"></path>
                <path d="M23.172,726.566 C23.316,702.922 23.861,679.284 24.039,655.641 C24.215,632.344 25.114,608.311 22.037,585.172 C19.297,564.571 12.254,544.67 13.217,523.695 C13.541,516.627 15.012,509.236 22.918,507.554 C32.934,505.424 43.59,507.242 53.737,505.848 C57.47,505.335 54.372,485.588 50.264,486.152 C39.676,487.606 28.717,485.886 18.245,488.113 C10.509,489.759 8.474,498.689 7.466,505.275 C4.113,527.163 9.76,549.396 14.11,570.682 C18.906,594.145 17.827,618.721 17.718,642.563 C17.605,667.522 16.979,692.476 16.828,717.434 C16.802,721.666 17.688,727.18 20.157,730.74 C22.667,734.359 23.164,727.963 23.172,726.566" id="Fill-14" fill="#000000" sketch:type="MSShapeGroup"></path>
                <path d="M95.381,37.372 C103.103,28.982 114.631,23.335 125.599,20.658 C129.927,19.602 135.069,19.176 139.253,20.975 C139.966,21.281 140.575,21.754 141.17,22.238 C143.931,24.481 139.732,7.98 139.186,13.082 C139.035,14.498 138.069,16.416 137.394,17.83 C133.907,25.142 128.498,31.448 122.945,37.255 C112.927,47.731 102.319,57.622 92.421,68.214 C73.506,88.454 56.7,113.512 49.076,140.385 C42.81,162.469 42.61,195.679 63.229,210.617 C70.898,216.173 80.81,218.433 89.981,219.982 C101.413,221.914 113.119,222.778 124.699,222.955 C151.975,223.372 179.31,218.667 205.066,209.78 C217.901,205.351 230.286,199.655 242.076,192.93 C254.67,185.747 266.064,176.746 277.857,168.362 C303.69,149.995 330.167,132.549 355.753,113.832 C369.397,103.851 382.514,93.285 395.12,82.019 C401.502,76.316 407.741,70.453 413.93,64.541 C419.257,59.453 423.485,52.872 429.737,48.848 C434.429,45.828 427.713,28.219 426.264,29.152 C421.251,32.378 417.531,36.842 413.612,41.26 C408.572,46.942 402.688,51.982 397.116,57.13 C385.911,67.483 374.325,77.415 362.228,86.713 C336.839,106.227 309.953,123.769 283.711,142.097 C271.384,150.707 259.495,160.038 246.872,168.207 C235.513,175.559 223.336,181.602 210.795,186.648 C185.46,196.843 158.216,202.231 130.957,203.166 C118.494,203.593 106.061,202.777 93.69,201.3 C83.844,200.125 73.894,198.336 65.036,193.682 C61.202,191.667 57.731,188.932 55.068,185.512 C52.207,181.836 52.051,179.368 52.023,174.788 C51.937,160.874 57.38,147.049 63.572,134.842 C76.841,108.685 95.918,87.769 116.547,67.29 C129.098,54.83 147.32,39.352 145.421,19.636 C144.857,13.789 143.523,7.29 139.235,2.996 C135.779,-0.465 129.006,-0.144 124.639,0.472 C112.438,2.192 98.942,9.584 90.619,18.628 C88.307,21.14 90.204,28.337 90.898,31.07 C91.14,32.026 93.212,39.729 95.381,37.372" id="Fill-15" fill="#000000" sketch:type="MSShapeGroup"></path>
                <path d="M98.619,205.628 C78.27,221.582 61.582,241.493 44.689,260.915 C37.449,269.24 30.681,277.528 24.343,286.565 C18.241,295.265 11.74,304.845 2.264,310.152 C-2.432,312.781 3.907,330.873 5.737,329.848 C14.494,324.944 20.75,316.916 26.541,308.92 C33.197,299.731 39.687,290.823 47.17,282.276 C64.887,262.036 82.108,241.051 103.381,224.372 C106.994,221.539 101.486,203.38 98.619,205.628" id="Fill-16" fill="#000000" sketch:type="MSShapeGroup"></path>
                <path d="M630.619,25.628 C615.994,46.797 592.429,54.026 567.736,55.013 C553.647,55.575 539.73,53.943 525.773,52.25 C511.258,50.489 496.304,48.895 481.959,52.565 C455.404,59.361 431.737,77.501 411.455,95.178 C400.57,104.664 390.17,114.691 379.575,124.494 C368.588,134.659 357.279,144.443 346.506,154.843 C324.081,176.493 303.099,199.581 281.908,222.421 C269.846,235.421 254.602,245.151 241.648,257.242 C235.25,263.213 228.873,269.799 224.908,277.691 C220.394,286.678 221.224,297.813 225.079,306.897 C231.408,321.809 254.267,319.836 267.387,319.151 C274.08,318.801 280.743,317.941 287.443,317.742 C303.639,317.26 319.851,318.211 336.019,319.06 C352.211,319.911 368.41,320.647 384.626,320.071 C400.526,319.505 416.418,319.105 432.329,319.384 C448.099,319.661 463.727,320.823 479.342,323.029 C494.792,325.212 510.169,327.008 525.612,323.768 C551.556,318.325 575.09,304.56 595.567,288.134 C604.328,281.106 612.521,273.386 620.381,265.372 C622.726,262.981 620.771,255.565 620.102,252.93 C619.84,251.896 617.856,244.347 615.619,246.628 C596.757,265.859 575.715,282.956 551.122,294.295 C538.488,300.12 524.724,304.543 510.823,305.726 C495.434,307.035 480.011,303.724 464.811,301.847 C433.105,297.931 401.26,300.463 369.46,300.603 C339.592,300.735 309.471,296.031 279.631,298.249 C264.596,299.367 247.267,302.385 232.763,296.942 C230.691,296.165 227.22,294.043 226.65,292.934 C227.146,294.966 227.641,296.999 228.137,299.031 C228.106,301.575 228.143,302.096 228.248,300.595 C228.183,301.341 228.663,298.997 228.603,299.219 C229.105,297.376 230.012,295.697 230.95,294.046 C235.441,286.145 242.412,279.597 249.064,273.539 C262.753,261.074 277.856,250.678 290.474,237.062 C311.659,214.202 332.764,191.245 355.31,169.706 C365.602,159.874 376.402,150.604 386.834,140.924 C397.437,131.086 407.902,121.1 418.847,111.639 C439.102,94.128 463.367,76.67 490.109,71.182 C504.033,68.324 519,70.69 532.919,72.394 C546.649,74.074 560.291,75.262 574.132,74.578 C598.296,73.385 621.223,64.865 635.381,44.372 C637.485,41.326 635.91,35.111 635.102,31.93 C634.94,31.292 632.45,22.977 630.619,25.628" id="Fill-17" fill="#000000" sketch:type="MSShapeGroup"></path>
                <path d="M331.737,188.848 C355.364,191.315 379.099,190.702 402.797,189.854 C426.388,189.009 449.769,188.825 473.36,189.714 C496.415,190.583 518.884,189.842 541.306,183.954 C563.217,178.2 584.01,168.829 604.737,159.848 C609.333,157.857 603.737,139.08 601.263,140.152 C581.053,148.909 560.853,157.809 539.602,163.777 C517.342,170.029 494.805,170.871 471.83,170.088 C448.245,169.285 424.889,169.229 401.301,170.086 C376.947,170.971 352.548,171.687 328.263,169.152 C325.839,168.899 326.587,188.31 331.737,188.848" id="Fill-18" fill="#000000" sketch:type="MSShapeGroup"></path>
                <path d="M856.108,50.632 C857.064,40.195 855.012,27.94 847.453,20.195 C842.004,14.613 832.992,12.866 825.61,11.756 C801.996,8.206 777.689,10.121 753.94,8.11 C738.955,6.841 724.118,4.196 709.417,8.814 C701.381,11.338 694.243,16.514 688.124,22.171 C674.719,34.564 665.658,51.469 659.819,68.578 C648.448,101.896 649.786,153.228 685.818,171.037 C709.244,182.616 736.814,173.818 759.501,164.889 C770.999,160.364 782.195,154.51 793.988,150.801 C804.019,147.647 813.571,151.856 821.042,158.499 C839.026,174.489 843.2,199.972 843.711,222.685 C844.065,238.4 842.98,254.227 842.148,269.917 C841.338,285.214 838.309,299.393 834.314,314.119 C830.737,327.306 825.786,339.376 814.157,347.406 C803.775,354.575 790.709,356.77 778.397,357.742 C756.209,359.493 732.851,359.566 710.937,355.422 C688.635,351.204 668.791,340.048 659.292,318.664 C654.788,308.525 654.204,296.859 654.547,285.93 C654.943,273.295 656.75,260.718 658.841,248.267 C659.602,243.742 658.907,238.947 657.419,234.625 C657.055,233.564 653.905,227.287 653.159,231.733 C645.484,277.424 640.898,344.133 690.961,367.826 C711.036,377.327 734.471,378.366 756.296,378.25 C779.644,378.127 805.874,378.569 824.24,361.893 C833.916,353.107 837.541,339.805 840.813,327.63 C844.784,312.854 847.479,298.491 848.364,283.181 C850.229,250.93 851.99,218.488 844.56,186.774 C839.929,167.006 829.348,143.036 810.418,133.173 C800.512,128.012 791.252,130.564 781.527,134.558 C769.553,139.475 757.756,144.797 745.546,149.123 C722.793,157.186 695.816,162.043 675.08,146.422 C669.076,141.899 664.252,135.3 661.81,128.546 C660.576,125.134 660.511,124.235 660.184,121.265 C659.828,118.03 659.869,113.782 660.189,109.74 C661.644,91.341 668.736,73.272 678.767,57.902 C689.249,41.84 703.809,28.804 723.391,26.201 C738.388,24.208 753.964,27.838 768.961,28.56 C782.745,29.224 796.556,29.442 810.346,30.023 C818.671,30.375 827.017,30.766 835.178,32.574 C839.265,33.479 843.206,34.978 846.718,37.27 C848.053,38.141 849.254,39.199 850.242,40.445 C850.779,41.122 850.766,41.123 851.139,41.901 C850.62,40.817 850.241,33.555 849.892,37.368 C849.475,41.921 850.409,47.157 852.348,51.295 C853.886,54.578 855.779,54.23 856.108,50.632" id="Fill-19" fill="#000000" sketch:type="MSShapeGroup"></path>
            </g>
        </g>
    </g>
</svg>