<?xml version="1.0" encoding="UTF-8" standalone="no"?>
<svg width="1000px" height="1000px" viewBox="0 0 1000 1000" version="1.1" xmlns="http://www.w3.org/2000/svg" xmlns:xlink="http://www.w3.org/1999/xlink" xmlns:sketch="http://www.bohemiancoding.com/sketch/ns">
    <!-- Generator: Sketch Beta 3.3.2 (12041) - http://www.bohemiancoding.com/sketch -->
    <title>3</title>
    <desc>Created with Sketch Beta.</desc>
    <defs></defs>
    <g id="Page-1" stroke="none" stroke-width="1" fill="none" fill-rule="evenodd" sketch:type="MSPage">
        <g id="3" sketch:type="MSArtboardGroup">
            <g id="Imported-Layers" sketch:type="MSLayerGroup" transform="translate(77.000000, 97.000000)">
                <path d="M52,391.5 C52,175.28 218.102,0 423,0 C627.898,0 794,175.28 794,391.5 C794,607.719 627.898,783 423,783 C218.102,783 52,607.719 52,391.5" id="Fill-1" fill="#FF4621" sketch:type="MSShapeGroup"></path>
                <path d="M401.736,789.848 C430.051,789.875 458.684,790.647 485.722,780.907 C499.966,775.776 513.139,767.548 526.007,759.692 C539.127,751.683 551.954,743.201 564.932,734.965 C577.525,726.973 590.196,718.607 604.101,713.069 C617.359,707.79 631.501,705.027 645.389,701.975 C659.06,698.971 672.762,695.656 685.492,689.697 C696.368,684.607 706.079,677.219 715.016,669.28 C733.469,652.887 748.683,633.151 768.354,618.082 C785.924,604.622 804.652,593.917 818.566,576.223 C833.683,557 844.694,531.066 845.382,506.561 C846.218,476.825 833.232,450.505 823.803,423.095 C815.832,399.922 813.226,375.192 811.076,350.916 C808.753,324.679 807.255,298.39 803.402,272.311 C799.667,247.03 793.317,221.653 781.527,198.849 C769.996,176.545 752.706,158.937 732.404,144.441 C711.722,129.673 688.887,118.236 666.894,105.612 C655.378,99.001 644.392,91.505 632.654,85.285 C620.677,78.938 608.042,73.916 595.152,69.763 C568.668,61.231 540.99,56.426 513.666,51.462 C482.987,45.887 452.1,41.391 421.034,38.64 C359.134,33.158 296.244,35.477 235.974,51.51 C209.958,58.431 184.08,67.219 158.689,76.161 C134.428,84.704 110.594,94.968 89.348,109.628 C68.257,124.18 51.383,143.103 39.128,165.579 C26.74,188.298 19.138,213.455 13.771,238.663 C1.372,296.906 0.644,356.622 0.994,415.913 C1.16,444.071 0.531,472.344 4.075,500.34 C7.173,524.823 13.293,548.829 23.582,571.307 C44.812,617.686 82.198,652.897 124.794,679.668 C168.493,707.132 216.345,727.51 258.879,756.896 C278.159,770.216 296.579,784.794 318.445,793.758 C339.636,802.446 361.768,803.618 384.367,804.12 C401.111,804.492 417.754,806.296 434.521,805.299 C450.369,804.357 468.234,800.757 478.381,787.372 C480.562,784.495 478.874,777.967 478.102,774.93 C477.916,774.196 475.564,766.062 473.619,768.628 C461.474,784.648 437.94,785.879 419.531,785.949 C409.388,785.988 399.259,785.29 389.135,784.762 C378.258,784.193 367.371,784.468 356.506,783.59 C334.384,781.802 314.103,774.963 295.049,763.693 C273.541,750.972 254.168,735.011 232.747,722.1 C188.497,695.428 140.644,674.761 98.786,644.169 C59.908,615.754 27.239,575.687 14.765,528.528 C8.642,505.378 7.568,481.256 7.517,457.426 C7.448,425.422 6.877,393.417 7.784,361.42 C8.603,332.521 11.074,303.624 15.738,275.083 C19.946,249.329 26.116,223.591 36.487,199.573 C46.71,175.896 61.515,154.815 81.266,138.147 C101.109,121.401 124.971,110.001 149.028,100.694 C173.277,91.313 198.307,83.789 223.089,75.961 C252.874,66.552 283.739,60.839 314.808,57.897 C376.8,52.029 439.348,58.029 500.555,68.262 C529.012,73.02 557.705,78.056 585.573,85.605 C598.781,89.183 611.702,93.755 624.164,99.408 C636.672,105.082 648.066,112.453 659.783,119.537 C702.235,145.202 752.028,164.951 778.207,209.746 C790.067,230.039 795.438,253.614 798.578,276.68 C802.088,302.458 803.272,328.489 805.74,354.374 C808.259,380.776 812.233,407.154 820.489,432.43 C824.927,446.015 830.857,459.065 835.25,472.674 C839.136,484.709 840.068,496.451 837.305,508.856 C832.351,531.101 819.669,553.065 803.469,569 C786.906,585.293 765.92,595.938 748.989,611.835 C730.933,628.788 715.487,648.699 694.806,662.69 C671.608,678.383 643.307,681.078 616.887,688.113 C587.767,695.866 563.232,714.166 538.169,730.187 C512.997,746.278 487.765,762.485 457.832,767.541 C438.202,770.856 418.089,770.171 398.264,770.152 C395.234,770.149 396.967,789.844 401.736,789.848" id="Fill-2" fill="#000000" sketch:type="MSShapeGroup"></path>
                <path d="M181.737,689.848 C194.184,685.196 207.296,684.508 220.456,684.394 C233.447,684.281 246.291,683.92 259.234,682.705 C282.685,680.505 304.827,674.899 326.086,664.659 C325.56,664.289 325.034,663.92 324.507,663.551 C324.837,655.324 324.452,653.152 323.353,657.034 C322.79,658.328 321.847,659.451 320.975,660.54 C319.151,662.818 316.681,664.573 314.264,666.152 C309.575,669.214 316.327,686.768 317.736,685.848 C323.293,682.219 328.49,677.798 329.718,670.945 C331.194,662.706 328.986,652.909 324.192,646.071 C323.854,645.4 323.328,645.03 322.613,644.963 C301.828,654.974 280.285,660.494 257.384,662.85 C244.525,664.172 231.707,664.643 218.787,664.688 C205.042,664.736 191.273,665.289 178.264,670.152 C173.766,671.833 178.939,690.894 181.737,689.848" id="Fill-3" fill="#FF4621" sketch:type="MSShapeGroup"></path>
                <path d="M268.264,706.152 C250.391,701.546 231.386,701.205 213.173,698.507 C203.32,697.047 193.403,695.219 184.002,691.856 C180.351,690.551 176.827,688.901 173.548,686.83 C172.119,685.928 170.801,684.87 169.551,683.738 C165.22,679.815 169.248,679.322 168.461,688.376 C168.687,685.768 172.088,682.519 173.96,680.71 C177.419,677.366 181.658,674.867 185.861,672.585 C193.608,668.377 202.022,665.112 210.561,662.929 C225.082,659.218 240.205,661.148 254.821,663.112 C270.192,665.178 284.791,665.881 300.233,664.118 C311.923,662.782 323.513,661.534 335.173,663.806 C337.419,664.243 336.462,645.886 332.469,644.337 C314.081,637.201 291.987,639.63 275.179,628.529 C276.08,635.018 276.981,641.508 277.883,647.998 C301.635,637.194 328.919,630.653 355.005,630.106 C366.846,629.857 379.665,631.116 389.734,637.882 C392.822,639.957 395.88,642.765 397.692,646.053 C398.482,647.892 398.487,647.642 397.707,645.304 C397.596,643.841 397.517,643.553 397.47,644.437 C397.364,646.053 396.953,647.617 396.554,649.179 C394.565,656.977 390.682,664.254 387.712,671.702 C386.303,675.237 387.668,688.789 392.29,689.817 C418.184,695.575 444.335,690.906 470.335,688.587 C482.724,687.483 494.455,687.441 506.653,690.064 C518.703,692.655 530.063,695.154 542.421,695.685 C564.601,696.639 587.169,698.839 609.27,695.735 C619.119,694.351 626.913,686.585 635.883,682.87 C647.291,678.145 660.4,683.58 671.736,685.848 C673.579,686.217 673.657,667.231 668.264,666.152 C657.015,663.901 645.237,659.224 633.756,662.688 C623.738,665.711 616.304,674.114 605.797,676.038 C595.452,677.933 584.494,677.643 574.028,677.459 C562.326,677.254 550.638,676.514 538.948,675.989 C527.217,675.463 516.339,673.388 504.913,670.756 C492.108,667.806 479.902,667.797 466.862,668.891 C440.808,671.078 414.77,675.892 388.817,670.121 C390.343,676.159 391.869,682.197 393.395,688.236 C396.545,680.337 400.454,672.7 402.565,664.427 C405.114,654.435 403.847,643.368 400.049,633.874 C393.985,618.711 379.004,612.607 363.864,610.908 C347.939,609.121 331.514,611.583 315.965,614.959 C301.791,618.037 287.631,622.288 274.41,628.301 C270.181,630.225 273.978,645.699 277.114,647.771 C294.035,658.947 315.975,656.427 334.404,663.579 C333.503,657.089 332.601,650.599 331.7,644.109 C316.344,641.117 301.108,644.32 285.749,645.514 C270.668,646.686 255.773,643.803 240.854,642.084 C217.964,639.445 196.024,643.871 176.562,656.316 C169.389,660.903 163.639,666.453 162.245,675.112 C160.609,685.27 164.898,697.426 172.716,704.057 C178.94,709.337 187.394,711.848 195.118,713.942 C205.039,716.63 215.285,718.104 225.462,719.422 C240.802,721.41 256.711,721.976 271.737,725.848 C273.231,726.233 273.752,707.566 268.264,706.152" id="Fill-4" fill="#0E0E0E" sketch:type="MSShapeGroup"></path>
                <path d="M435.619,324.628 C421.187,338.76 397.071,340.62 386.836,359.438 C380.954,370.251 381.967,384.165 383.254,395.948 C384.723,409.401 387.433,423.299 392.649,435.826 C397.611,447.744 405.129,457.924 414.001,467.212 C422.371,475.975 432.703,481.574 442.437,488.601 C446.71,491.685 450.689,495.098 453.097,499.858 C455.009,503.637 454.372,507.358 453.552,511.443 C451.215,523.084 445.611,533.893 441.316,544.878 C432.952,566.272 433.457,591.119 441.716,612.593 C444.673,620.283 448.935,627.43 455.661,632.382 C461.914,636.985 470.006,638.554 477.613,638.683 C499.696,639.058 522.744,628.745 540.411,616.205 C558.698,603.224 572.992,585.681 584.888,566.844 C597.163,547.408 606.857,526.462 616.563,505.67 C622.254,493.479 627.909,481.434 631.811,468.518 C635.946,454.832 638.274,440.674 640.559,426.587 C642.835,412.557 646.157,398.608 648.117,384.551 C649.682,373.32 647.864,360.547 642.704,350.416 C634.343,333.999 614.953,329.902 598.085,329.111 C590.233,328.743 582.433,329.356 574.616,330.019 C562.323,331.062 549.97,331.331 537.639,331.07 C513.631,330.562 489.662,327.532 466.264,322.152 C464.602,321.77 464.289,340.596 469.737,341.848 C499.814,348.763 530.698,351.622 561.537,350.669 C582.785,350.012 605.078,345.424 625.644,353.14 C632.014,355.53 639.792,360.279 642.191,366.615 C643.17,369.201 642.125,363.94 642.21,367.161 C642.267,369.333 641.905,371.559 641.503,373.688 C640.079,381.226 638.41,388.702 637.12,396.27 C634.713,410.395 632.738,424.59 629.612,438.583 C626.42,452.869 621.467,466.298 615.259,479.527 C596.183,520.178 577.51,563.971 541.665,592.913 C519.77,610.593 456.549,639.833 443.218,598.033 C442.95,597.191 442.779,596.203 442.465,594.439 C442.209,592.999 441.999,590.885 441.815,588.687 C441.38,583.472 441.806,578.532 443.041,573.454 C445.855,561.882 451.497,551.156 455.638,540.042 C464.106,517.311 462.919,487.306 442.74,471.058 C433.535,463.646 422.803,458.593 414.313,450.248 C405.231,441.321 397.284,430.89 393.101,418.756 C389.683,408.844 387.988,397.029 389.06,386.61 C390.161,375.899 398.387,368.307 407.144,363.146 C418.298,356.574 430.95,352.607 440.381,343.372 C442.746,341.057 440.756,333.503 440.102,330.93 C439.827,329.846 437.897,322.397 435.619,324.628" id="Fill-5" fill="#0E0E0E" sketch:type="MSShapeGroup"></path>
                <path d="M409.843,263.26 C403.745,255.052 397.937,246.402 390.501,239.316 C384.164,233.277 376.147,230.456 367.63,229.135 C357.248,227.524 345.603,228.9 336.966,221.72 C336.322,221.185 335.922,220.605 335.448,219.926 C339.121,225.194 336.163,231.849 337.358,227.175 C338.14,224.117 340.194,221.379 342.046,218.894 C343.891,216.417 346.051,213.129 349.272,212.673 C351.255,212.393 353.363,213.939 355.228,213.506 C354.701,213.137 354.175,212.768 353.648,212.399 C353.65,212.401 353.652,212.402 353.654,212.405 C354.464,213.334 354.833,213.845 355.878,213.036 C358.92,210.679 362.013,208.183 364.794,205.523 C366.699,203.701 365.442,197.783 365.072,195.682 C364.585,192.925 363.863,188.402 361.445,186.53 C361.442,186.527 361.438,186.524 361.434,186.522 C362.336,193.011 363.237,199.501 364.138,205.991 C367.964,203.264 370.726,199.35 373.746,195.804 C377.37,191.548 379.844,190.888 385.341,190.92 C389.627,190.945 392.01,190.222 394.586,186.759 C397.229,183.205 398.903,178.877 400.408,174.75 C403.827,165.377 405.228,155.305 405.5,145.376 C405.758,135.98 404.563,123.294 398.433,115.665 C399.065,121.862 399.696,128.058 400.327,134.254 C404.956,131.756 407.491,127.839 410.319,123.564 C414.28,117.576 420.051,116.109 426.957,115.94 C433.629,115.776 439.888,116.104 446.516,114.939 C453.25,113.756 460.354,112.04 467.09,114.132 C470.99,115.344 476.208,119.475 477.469,122.706 C478.498,125.341 477.102,121.093 477.764,123.659 C477.956,124.405 478.12,125.159 478.294,125.909 C478.884,128.447 479.619,131.016 480.713,133.389 C484.733,142.103 494.876,141.18 502.853,138.558 C520.519,132.753 520.658,106.388 541.053,105.811 C551.643,105.512 562.055,111.972 570.99,116.891 C580.315,122.024 589.656,127.66 600.167,129.961 C615.441,133.305 631.632,128.433 646.169,135.688 C660.979,143.079 660.401,161.433 667.886,174.285 C668.516,175.366 669.198,175.619 670.11,174.917 C680.526,166.891 693.701,162.088 706.279,158.732 C718.292,155.526 732.992,152.981 744.968,157.621 C747.924,158.766 747.152,151.425 747.026,150.166 C746.777,147.697 746.015,139.535 743.032,138.379 C730.26,133.43 715.693,135.749 702.806,139.036 C689.587,142.407 676.216,147.8 665.348,156.173 C666.089,156.384 666.83,156.594 667.572,156.805 C665.002,152.393 663.976,147.012 662.492,142.18 C660.607,136.045 658.093,129.999 654.23,124.834 C646.732,114.806 634.207,112.114 622.408,111.575 C610.725,111.041 599.382,112.069 588.315,107.562 C577.813,103.285 568.3,96.85 558.109,91.919 C549.582,87.792 539.504,84.15 530.129,87.471 C522.003,90.35 517.855,98.908 513.565,105.703 C507.757,114.899 500.976,119.731 489.948,120.497 C487.948,120.637 485.714,120.643 483.803,119.959 C482.525,119.502 481.757,118.061 482.555,120.124 C483.472,122.496 482.152,118.279 481.968,117.519 C481.284,114.685 480.384,111.857 479.209,109.186 C476.211,102.367 470.944,96.688 463.712,94.442 C455.454,91.877 446.565,94.804 438.324,96.006 C429.253,97.33 419.563,94.345 411.166,99.08 C404.785,102.679 403.388,111.032 396.854,114.558 C392.638,116.833 396.511,130.362 398.748,133.146 C399.077,133.555 399.832,134.956 399.307,133.611 C399.058,132.624 399.07,132.675 399.345,133.765 C399.242,133.356 398.905,130.835 399.142,133.274 C399.317,135.074 398.935,139.553 398.593,142.342 C397.685,149.747 395.586,157.352 392.232,164.025 C391.05,166.375 389.581,168.581 387.754,170.476 C385.963,172.333 379.58,171.166 377.24,171.319 C369.683,171.814 366.221,182.334 360.665,186.294 C356.631,189.17 359.951,203.118 363.37,205.763 C363.373,205.766 363.377,205.769 363.38,205.772 C362.264,199.441 361.148,193.11 360.031,186.779 C357.25,189.44 354.157,191.936 351.115,194.293 C351.856,194.503 352.598,194.714 353.339,194.924 C353.337,194.922 353.335,194.92 353.334,194.918 C352.995,194.247 352.469,193.878 351.755,193.81 C350.051,194.206 347.604,193.017 345.799,192.977 C342.16,192.896 339.233,197.711 337.283,200.15 C333.192,205.271 330.478,211.666 330.746,218.305 C331.028,225.274 332.278,233.216 336.814,238.801 C340.433,243.258 345.894,245.189 351.287,246.535 C363.25,249.522 375.569,247.421 386.597,254.041 C396.687,260.098 403.323,271.54 410.157,280.74 C412.733,284.207 413.2,278.113 413.172,276.566 C413.099,272.393 412.423,266.734 409.843,263.26" id="Fill-6" fill="#0E0E0E" sketch:type="MSShapeGroup"></path>
                <path d="M454.659,285.531 C454.463,284.359 454.459,284.397 454.645,285.644 C454.547,284.561 454.535,284.551 454.609,285.616 C454.506,283.555 454.517,285.092 454.74,283.107 C454.863,282.012 455.665,279.395 456.43,277.805 C458.305,273.909 461.331,270.677 464.718,268.048 C472.057,262.351 482.134,260.009 491.227,259.505 C499.444,259.05 508.506,260.208 515.332,265.139 C516.697,266.125 517.321,266.759 518.19,267.942 C519.002,269.046 518.616,268.632 518.243,267.668 C518.866,269.276 517.253,261.1 517.269,262.313 C517.251,261.018 517.346,261.434 517.056,262.647 C516.839,263.554 516.539,264.469 516.165,265.324 C515.074,267.817 513.536,270.103 511.92,272.28 C510.176,274.63 511.192,279.569 511.642,282.12 C512.02,284.262 512.849,290.162 515.269,291.272 C528.265,297.233 542.71,301.311 556.917,302.842 C570.167,304.27 586.548,302.255 589.525,286.708 C588.36,286.384 587.196,286.06 586.031,285.736 C589.748,294.328 594.912,307.527 604.959,310.455 C612.269,312.586 620.171,307.924 626.747,305.285 C636.416,301.405 646.362,298.559 656.848,299.519 C662.173,300.006 667.425,301.309 672.219,303.697 C674.168,304.667 676.225,305.976 677.673,307.625 C680.508,310.854 676.783,310.686 677.171,300.784 C677.129,301.859 676.662,303.053 676.24,304.034 C674.934,307.075 675.404,310.702 675.963,313.874 C676.402,316.362 677.144,321.493 679.589,323.026 C689.346,329.146 699.036,335.343 709.455,340.301 C719.446,345.055 731.767,349.686 742.872,346.446 C742.076,345.595 741.279,344.744 740.483,343.893 C743.91,350.094 747.231,356.932 748.533,363.941 C749.524,369.275 744.641,376.531 742.833,381.365 C737.137,396.599 743.913,416.149 756.142,426.164 C761.265,430.36 767.189,433.532 772.714,437.15 C777.609,440.356 784.122,444.664 786.383,450.36 C786.142,449.753 786.175,448.967 786.136,448.325 C786.204,449.45 786.126,450.517 786.022,451.643 C785.743,454.637 784.776,457.634 783.438,460.312 C780.501,466.197 775.252,469.25 768.711,468.231 C770.083,474.638 771.456,481.044 772.828,487.451 C784.87,473.061 804.539,470.191 821.736,465.848 C825.918,464.792 821.742,445.273 818.264,446.152 C800.439,450.654 780.537,453.804 768.066,468.708 C765.516,471.755 767.688,487.227 772.184,487.927 C788.527,490.474 792.824,469.57 792.481,457.456 C792.22,448.256 789.962,438.985 785.062,431.144 C780.968,424.593 774.168,420.032 767.782,415.977 C761.775,412.163 755.098,408.634 750.239,403.32 C749.201,402.185 748.184,400.888 747.459,399.528 C746.93,398.198 746.849,398.242 747.214,399.658 C747.873,402.812 747.387,401.879 747.831,400.067 C748.761,396.266 750.729,392.701 752.158,389.074 C759.662,370.036 751.147,346.239 741.788,329.302 C741.488,328.761 740.52,326.423 739.399,326.75 C728.607,329.898 717.265,325.563 707.519,321.059 C697.063,316.225 687.391,309.891 677.654,303.784 C678.771,310.115 679.887,316.446 681.003,322.777 C686.321,310.396 683.41,292.105 671.107,284.899 C661.705,279.392 649.169,278.479 638.711,280.688 C628.126,282.925 618.723,288.912 608.197,291.018 C596.456,293.366 591.067,279.77 587.335,271.146 C586.693,269.66 584.451,266.995 583.842,270.174 C581.136,284.309 563.653,284.246 552.395,283.033 C539.061,281.596 525.519,277.619 513.334,272.03 L516.682,291.023 C525.317,279.388 525.987,263.323 518.159,250.878 C512.857,242.45 501.283,240.077 492.088,239.762 C480.706,239.371 469.125,242.481 459.955,249.304 C448.141,258.095 446.968,272.95 449.341,286.469 C449.594,287.909 451.016,296.328 453.737,295.848 C456.458,295.368 454.912,286.972 454.659,285.531" id="Fill-7" fill="#0E0E0E" sketch:type="MSShapeGroup"></path>
                <path d="M178.264,200.152 C139.654,195.178 136.867,242.455 129.604,269.022 C127.151,277.991 123.038,286.514 119.221,294.961 C113.955,306.616 108.051,318.068 100.508,328.427 C93.283,338.348 84.489,345.287 73.058,349.775 C61.276,354.401 48.687,356.56 37.035,361.572 C38.193,368.138 39.35,374.703 40.508,381.269 C55.539,371.318 72.628,359.33 80.696,342.676 C89.569,324.362 80.618,296.241 59.363,291.517 C51.171,289.697 44.093,295.902 39.512,301.915 C33.778,309.44 30.231,318.772 27.34,327.694 C23.414,339.815 23.807,353.765 16.631,364.605 C13.59,369.199 9.82,373.227 7.003,377.984 C3.709,383.547 2.949,389.818 2.889,396.167 C2.75,410.732 6.171,424.943 6.828,439.434 C7.024,443.771 7.603,449.058 10.157,452.74 C12.634,456.311 13.239,450.025 13.172,448.566 C12.584,435.579 9.873,422.801 9.281,409.831 C9.011,403.923 9.997,399.401 13.208,394.386 C16.156,389.78 19.946,385.786 22.817,381.119 C29.328,370.535 29.125,356.925 32.696,345.269 C35.456,336.257 39.18,327.344 44.924,319.806 C49.723,313.508 56.972,309.047 65.003,311.821 C69.638,313.422 74.083,317.053 77.123,320.823 C79.929,324.302 77.766,321.529 77.656,318.361 C77.685,319.207 76.796,321.77 76.286,323.143 C73.145,331.602 65.602,338.806 59.104,344.744 C52.269,350.989 44.747,356.467 37.035,361.572 C33.097,364.18 37.79,382.438 40.508,381.269 C51.684,376.461 63.685,374.096 75.113,370.002 C86.677,365.859 95.853,359.053 103.497,349.497 C111.136,339.946 116.849,328.873 122.061,317.866 C126.501,308.487 131.109,298.825 134.29,288.93 C142.646,262.937 142.692,214.818 181.737,219.848 C184.013,220.141 183.486,200.825 178.264,200.152" id="Fill-8" fill="#0E0E0E" sketch:type="MSShapeGroup"></path>
                <path d="M13.737,485.848 C28.112,480.942 43.156,482.264 58.076,482.467 C73.727,482.68 87.71,478.83 102.501,474.135 C125.113,466.956 148.226,457.741 172.155,456.517 C188.311,455.691 205.587,456.784 220.988,462.015 C227.056,464.077 233.747,467.166 237.583,472.52 C238.732,474.124 237.296,471.739 238.161,473.49 C237.739,472.635 237.591,471.571 237.41,470.652 C237.314,469.695 237.218,468.738 237.123,467.782 C237.138,468.706 237.139,468.778 237.127,467.997 C237.071,468.833 237.037,468.753 236.846,469.59 C236.183,472.501 233.443,475.441 231.593,477.758 C225.842,484.961 219.199,491.47 212.8,498.087 C206.621,504.478 201.146,511.072 195.628,518.012 C188.484,526.998 179.858,534.68 172.569,543.547 C165.175,552.541 161.22,562.62 157.911,573.644 C155.775,580.76 154.012,588.076 150.053,594.449 C145.004,602.577 136.506,607.768 128.31,612.237 C119.053,617.285 109.182,621.159 100.479,627.19 C91.729,633.253 85.916,641.443 83.159,651.733 C82.022,655.976 83.192,661.339 84.58,665.375 C85.05,666.74 87.711,672.487 88.841,668.267 C95.192,644.571 121.165,639.024 139.527,627.404 C146.801,622.801 153.103,617.088 156.977,609.312 C160.914,601.409 162.786,592.534 165.45,584.165 C169.315,572.022 176.552,562.644 185.167,553.445 C189.279,549.055 193.491,544.765 197.462,540.245 C200.876,536.36 203.725,532.055 207.061,528.115 C213.353,520.684 220.458,513.932 227.144,506.862 C232.549,501.147 239.467,494.767 242.19,487.172 C245.335,478.397 243.111,467.144 239.466,458.899 C236.64,452.508 231.042,448.136 224.911,445.153 C210.359,438.071 192.696,436.731 176.762,436.644 C155.252,436.527 134.798,442.93 114.478,449.452 C100.219,454.029 85.727,459.835 70.851,461.977 C55.989,464.116 40.869,461.624 25.941,462.836 C20.582,463.271 15.344,464.418 10.264,466.152 C5.835,467.663 10.758,486.865 13.737,485.848" id="Fill-9" fill="#0E0E0E" sketch:type="MSShapeGroup"></path>
                <path d="M192.659,179.531 C190.708,167.94 188.197,151.942 178.341,144.059 C170.809,138.035 160.248,143.697 153.336,147.767 C147.297,151.324 141.45,155.436 136.011,159.852 C129.567,165.084 124.623,169.441 115.919,169.697 C109.663,169.881 103.514,166.292 98.557,162.855 C95.682,160.862 93.008,158.479 90.697,155.854 C89.593,154.6 88.628,153.234 87.698,151.849 C87.325,151.321 87.007,150.764 86.742,150.177 L86.259,149.124 C86.927,150.875 87.21,152.711 87.108,154.632 C87.297,149.962 86.655,144.978 84.652,140.705 C83.182,137.568 81.043,137.636 80.892,141.368 C80.205,158.352 87.669,173.204 101.562,182.839 C106.718,186.414 113.043,189.223 119.392,189.393 C127.249,189.603 132.937,185.275 138.596,180.432 C147.596,172.729 159.934,162.826 172.165,161.271 C183.295,159.856 185.931,172.092 187.341,180.469 C187.584,181.91 189.023,190.327 191.736,189.848 C194.465,189.367 192.902,180.975 192.659,179.531" id="Fill-10" fill="#0E0E0E" sketch:type="MSShapeGroup"></path>
            </g>
        </g>
    </g>
</svg>